<svg width="413" height="80" fill="none" xmlns="http://www.w3.org/2000/svg"><g clip-path="url(#clip0_371_537)"><path fill-rule="evenodd" clip-rule="evenodd" d="M379.83 62.83c0 3.8 2 5.7 6.03 5.7s5.99-1.91 6.03-5.7V.04L413 0v62.83c0 11.37-8.03 17.07-24.07 17.11l-6.1-.06c-5.37 0-9.86-.62-13.45-1.89-3.62 1.34-8.17 2-13.63 2l-6.1-.06c-16.08 0-24.14-5.68-24.14-17.05V.1h21.07l.04 62.79c0 3.79 2.02 5.7 6.03 5.7s5.99-1.91 6.03-5.7V.04h21.13v62.79h.02zm-80.89-45.68c0-3.79-1.98-5.7-5.97-5.7-3.99 0-6.05 1.91-6.1 5.7l.06 45.68c0 3.8 2.04 5.7 6.1 5.7s5.97-1.91 5.97-5.7l-.06-45.68zm21.13 45.68c0 11.41-8.03 17.11-24.07 17.11l-6.03-.06c-16.04 0-24.09-5.68-24.14-17.05l-.06-45.68C265.77 5.78 273.86.1 290.03.1h5.91c16.08 0 24.13 5.68 24.13 17.05v45.68zM206 17.15C205.99 5.78 214.09.1 230.25.1h5.91c16.08 0 24.13 5.68 24.13 17.05l-.06 11.47c0 3.78-3.01 7.55-9 11.35 6.03 3.85 9.08 7.63 9.12 11.35l-.12 11.52c0 11.41-8.03 17.11-24.07 17.11h-6.03c-16.08 0-24.13-5.72-24.13-17.17V17.15zm33.24 34.16c0-3.79-1.98-5.7-5.97-5.7-3.99 0-6.08 1.95-6.16 5.82v11.41c0 3.8 2.04 5.7 6.1 5.7s5.97-1.91 5.97-5.7l.06-11.52v-.01zm-.06-34.16c0-3.79-1.98-5.7-5.97-5.7-3.99 0-6.06 1.91-6.1 5.7v11.47c0 3.82 2.04 5.7 6.1 5.7s5.97-1.89 5.97-5.7V17.15zm-71.89 62.79l-21.11.06V17.15C146.16 5.78 154.2.08 170.24.04l6.1.06c16.08 0 24.13 5.68 24.13 17.05v62.79H179.4l-.06-62.79c0-3.79-2-5.7-6.03-5.7s-5.99 1.91-6.03 5.7v62.79h.01zM92.94 17.15c0-3.79-1.98-5.7-5.97-5.7-3.99 0-6.05 1.91-6.1 5.7v22.87H93l-.06-22.87zm0 62.79V51.37l-12.07.06v28.52l-21.11.06V17.15C59.77 5.78 67.82.08 83.9.04l6.03.06c16.08 0 24.13 5.68 24.13 17.05v62.79H92.93h.01zm-71.83 0H0V17.15C0 5.78 8.09.1 24.26.1h5.91C46.25.1 54.3 5.78 54.3 17.15l-.06 11.47c0 3.78-3.01 7.55-9 11.35 6.03 3.85 9.08 7.63 9.12 11.35l-.06 28.63H33.23V51.32c0-3.79-1.98-5.7-5.97-5.7-3.99 0-6.05 1.91-6.1 5.7l-.06 28.63.01-.01zm12.07-62.79c0-3.79-1.98-5.7-5.97-5.7-3.99 0-6.06 1.91-6.1 5.7v11.47c0 3.82 2.04 5.7 6.1 5.7s5.97-1.89 5.97-5.7V17.15zm86.42 62.79V.1h21.11v79.84H119.6z" fill="#1B1B1B"/></g><defs><clipPath id="clip0_371_537"><path fill="#fff" d="M0 0h413v80H0z"/></clipPath></defs></svg>