<svg width="41" height="41" viewBox="0 0 41 41" fill="none" xmlns="http://www.w3.org/2000/svg">
<path d="M20.2096 0C9.044 0 0 9.07925 0 20.2884C0 31.4975 9.044 40.5768 20.2096 40.5768C31.3752 40.5768 40.4192 31.4975 40.4192 20.2884C40.4192 9.07925 31.3752 0 20.2096 0ZM20.2096 2.78521C29.852 2.78521 37.6856 10.6494 37.6856 20.2884C37.6856 29.9274 29.852 37.8325 20.2096 37.8325C10.5672 37.8325 2.7744 29.9684 2.7744 20.2884C2.7744 10.6084 10.6216 2.78521 20.2096 2.78521Z" fill="#F7F7F7"/>
<path fill-rule="evenodd" clip-rule="evenodd" d="M22.8072 12.7523H25.3096V8.94311C24.9424 8.90216 24.5208 8.84754 24.0992 8.80658C23.3512 8.76562 22.6168 8.76562 21.828 8.76562C20.7128 8.76562 19.5976 9.0933 18.632 9.74864C17.5712 10.5405 16.9592 11.6601 16.728 12.9571C16.6328 13.5169 16.592 14.0766 16.592 14.6364V17.5172H12.9336V21.8043H16.592V32.6038H20.9984V21.8589H24.6568C24.8472 20.4116 25.024 19.019 25.2144 17.5309H20.9984C20.9984 17.5309 20.9984 15.3873 21.0392 14.4589C21.0392 13.2029 21.7872 12.8342 22.8072 12.7796V12.7523Z" fill="#F7F7F7"/>
</svg>
