<svg width="42" height="41" viewBox="0 0 42 41" fill="none" xmlns="http://www.w3.org/2000/svg">
<path d="M20.9999 0C9.83428 0 0.790283 9.07925 0.790283 20.2884C0.790283 31.4975 9.83428 40.5768 20.9999 40.5768C32.1655 40.5768 41.2095 31.4975 41.2095 20.2884C41.2095 9.07925 32.1655 0 20.9999 0ZM20.9999 2.78521C30.6423 2.78521 38.4759 10.6494 38.4759 20.2884C38.4759 29.9274 30.6423 37.8325 20.9999 37.8325C11.3575 37.8325 3.56468 29.9684 3.56468 20.2884C3.56468 10.6084 11.3983 2.78521 20.9999 2.78521Z" fill="#F7F7F7"/>
<path d="M28.2352 14.6088C28.2352 15.3051 27.6368 15.9058 26.9432 15.9058C26.2496 15.9058 25.6512 15.3051 25.6512 14.6088C25.6512 13.9125 26.2496 13.3118 26.9432 13.3118C27.6368 13.3118 28.2352 13.9125 28.2352 14.6088ZM21.1904 23.9202C19.2456 23.8792 17.668 22.2955 17.668 20.2885C17.7088 18.3361 19.2864 16.7523 21.2312 16.7523C23.2304 16.7933 24.7944 18.377 24.7536 20.384C24.7536 22.3364 23.1352 23.9202 21.1904 23.9202ZM21.2312 14.8409C18.1712 14.8409 15.7096 17.3121 15.7096 20.3294C15.7096 23.3467 18.1712 25.8179 21.2312 25.8726C24.2504 25.8726 26.6984 23.4014 26.6984 20.3294C26.6984 17.2575 24.2368 14.8409 21.2312 14.8409ZM29.8128 25.736C29.4864 27.5928 28.2896 28.767 26.3856 28.9991C24.672 29.1902 16.9336 29.2722 15.356 28.8079C13.8328 28.3847 12.9488 27.3198 12.6632 25.777C12.432 24.2888 12.3912 16.8889 12.6632 14.9365C12.9352 13.0797 14.1864 11.9055 16.0496 11.6734C17.9536 11.4823 24.808 11.4413 26.6168 11.7144C28.4664 12.042 29.636 13.2435 29.8128 15.1549C30.044 16.9298 30.0848 23.8109 29.8128 25.7224V25.736ZM31.7576 14.9911C31.6216 13.5985 31.064 12.3424 30.044 11.3184C28.9288 10.2535 27.5824 9.7893 26.1 9.73469C23.5976 9.59816 17.6136 9.50259 15.4784 9.83026C13.112 10.2535 11.5344 11.6461 10.8952 14.0217C10.392 15.8376 10.4736 24.2615 10.7592 26.0773C11.1808 28.5485 12.6088 30.1733 15.0704 30.774C16.7432 31.1972 25.0392 31.1426 26.9432 30.8696C29.4048 30.4463 30.9824 29.0127 31.6216 26.5415C32.084 24.6847 31.948 16.6704 31.7576 15.0048V14.9911Z" fill="#F7F7F7"/>
</svg>
