<svg width="41" height="41" viewBox="0 0 41 41" fill="none" xmlns="http://www.w3.org/2000/svg">
<path d="M20.7904 0.422852C9.62481 0.422852 0.580811 9.5021 0.580811 20.7112C0.580811 31.9204 9.62481 40.9996 20.7904 40.9996C31.956 40.9996 41 31.9204 41 20.7112C41 9.5021 31.956 0.422852 20.7904 0.422852ZM20.7904 3.16711C30.4328 3.16711 38.2664 11.0312 38.2664 20.7112C38.2664 30.3912 30.4328 38.2144 20.7904 38.2144C11.148 38.2144 3.35521 30.3503 3.35521 20.7112C3.35521 11.0722 11.1888 3.16711 20.7904 3.16711Z" fill="#F7F7F7"/>
<path fill-rule="evenodd" clip-rule="evenodd" d="M18.1928 23.9198C20.3688 22.7593 22.5448 21.6398 24.7752 20.4793C22.5448 19.3188 20.3688 18.1992 18.1928 17.0387V23.9198ZM12.3584 27.729C11.5696 27.4969 11.012 26.9371 10.74 26.1453C10.0464 24.1929 9.81521 16.042 11.2024 14.4173C11.6648 13.8576 12.2224 13.5299 12.9704 13.4889C16.6288 13.0657 27.944 13.1613 29.2904 13.6255C30.0384 13.8985 30.5824 14.3764 30.868 15.1546C31.6568 17.1616 31.6568 24.5069 30.7728 26.4593C30.5416 26.9644 30.12 27.3467 29.6168 27.6198C28.2704 28.3161 14.1808 28.3161 12.372 27.7154L12.3584 27.729Z" fill="#F7F7F7"/>
</svg>
