<svg width="413" height="80" viewBox="0 0 413 80" fill="none" xmlns="http://www.w3.org/2000/svg">
<g clip-path="url(#clip0_371_537)">
<path fill-rule="evenodd" clip-rule="evenodd" d="M379.83 62.83C379.83 66.63 381.83 68.53 385.86 68.53C389.89 68.53 391.85 66.62 391.89 62.83V0.04L413 0V62.83C413 74.2 404.97 79.9 388.93 79.94L382.83 79.88C377.46 79.88 372.97 79.26 369.38 77.99C365.76 79.33 361.21 79.99 355.75 79.99L349.65 79.93C333.57 79.93 325.51 74.25 325.51 62.88V0.1H346.58L346.62 62.89C346.62 66.68 348.64 68.59 352.65 68.59C356.66 68.59 358.64 66.68 358.68 62.89V0.04H379.81V62.83H379.83ZM298.94 17.15C298.94 13.36 296.96 11.45 292.97 11.45C288.98 11.45 286.92 13.36 286.87 17.15L286.93 62.83C286.93 66.63 288.97 68.53 293.03 68.53C297.09 68.53 299 66.62 299 62.83L298.94 17.15ZM320.07 62.83C320.07 74.24 312.04 79.94 296 79.94L289.97 79.88C273.93 79.88 265.88 74.2 265.83 62.83L265.77 17.15C265.77 5.78 273.86 0.1 290.03 0.1H295.94C312.02 0.1 320.07 5.78 320.07 17.15V62.83ZM206 17.15C205.99 5.78 214.09 0.1 230.25 0.1H236.16C252.24 0.1 260.29 5.78 260.29 17.15L260.23 28.62C260.23 32.4 257.22 36.17 251.23 39.97C257.26 43.82 260.31 47.6 260.35 51.32L260.23 62.84C260.23 74.25 252.2 79.95 236.16 79.95H230.13C214.05 79.95 206 74.23 206 62.78V17.15ZM239.24 51.31C239.24 47.52 237.26 45.61 233.27 45.61C229.28 45.61 227.19 47.56 227.11 51.43V62.84C227.11 66.64 229.15 68.54 233.21 68.54C237.27 68.54 239.18 66.63 239.18 62.84L239.24 51.32V51.31ZM239.18 17.15C239.18 13.36 237.2 11.45 233.21 11.45C229.22 11.45 227.15 13.36 227.11 17.15V28.62C227.11 32.44 229.15 34.32 233.21 34.32C237.27 34.32 239.18 32.43 239.18 28.62V17.15ZM167.29 79.94L146.18 80V17.15C146.16 5.78 154.2 0.08 170.24 0.04L176.34 0.1C192.42 0.1 200.47 5.78 200.47 17.15V79.94H179.4L179.34 17.15C179.34 13.36 177.34 11.45 173.31 11.45C169.28 11.45 167.32 13.36 167.28 17.15V79.94H167.29ZM92.94 17.15C92.94 13.36 90.96 11.45 86.97 11.45C82.98 11.45 80.92 13.36 80.87 17.15V40.02H93L92.94 17.15ZM92.94 79.94V51.37L80.87 51.43V79.95L59.76 80.01V17.15C59.77 5.78 67.82 0.08 83.9 0.04L89.93 0.1C106.01 0.1 114.06 5.78 114.06 17.15V79.94H92.93H92.94ZM21.11 79.94H0V17.15C0 5.78 8.09 0.1 24.26 0.1H30.17C46.25 0.1 54.3 5.78 54.3 17.15L54.24 28.62C54.24 32.4 51.23 36.17 45.24 39.97C51.27 43.82 54.32 47.6 54.36 51.32L54.3 79.95H33.23V51.32C33.23 47.53 31.25 45.62 27.26 45.62C23.27 45.62 21.21 47.53 21.16 51.32L21.1 79.95L21.11 79.94ZM33.18 17.15C33.18 13.36 31.2 11.45 27.21 11.45C23.22 11.45 21.15 13.36 21.11 17.15V28.62C21.11 32.44 23.15 34.32 27.21 34.32C31.27 34.32 33.18 32.43 33.18 28.62V17.15ZM119.6 79.94V0.1H140.71V79.94H119.6Z" fill="#1B1B1B"/>
</g>
<defs>
<clipPath id="clip0_371_537">
<rect width="413" height="80" fill="white"/>
</clipPath>
</defs>
</svg>
