<svg width="150" height="41" fill="none" xmlns="http://www.w3.org/2000/svg"><g clip-path="url(#clip0_81_138)" fill="#F7F7F7"><path d="M30.503 5.878C26.715 2.088 21.687 0 16.348 0c-2.329 0-4.651.415-6.896 1.233-.363.13-.72.272-1.064.421a19.572 19.572 0 00-4.956 3.043l.123.162C7.435 2.212 12.008.753 16.44.753c5.287 0 9.939 1.978 13.448 5.715 4.535 4.833 6.247 11.95 4.353 18.138-1.739 5.69-6.176 9.615-12.495 11.055a14.38 14.38 0 01-3.204.35c-6.468 0-13-3.86-15.524-9.18C1.505 23.654.74 18.594 5.663 12.554a15.352 15.352 0 0110.925-4.535 16.14 16.14 0 013.147.331c.103.02.2.046.304.065.623.136.85.817.85 1.356v14.064c-.065-.084-.13-.175-.194-.259a8.638 8.638 0 00-2.719-2.167c-1.07-.538-2.076-.83-3.003-.863-.993 0-1.758.117-2.33.364-1.238.512-1.894 1.44-1.907 2.679-.025 2.374 2.29 5.313 4.23 6.163 1.13.493 2.251.74 3.328.74 1.051 0 1.947-.273 2.654-.811.635-.416.973-1.097 1.012-2.031l.006-18.139c0-.46-.026-.908-.324-1.304l-.02-.025a2.426 2.426 0 00-.7-.597 3.106 3.106 0 00-.954-.35 8.634 8.634 0 00-.467-.085 17.105 17.105 0 00-2.906-.266c-4.418 0-8.583 1.732-11.723 4.872C1.732 14.895 0 19.06 0 23.478 0 27.895 1.732 32.06 4.872 35.2c3.049 3.05 7.09 4.781 11.385 4.866l.344.006h.097c5.21-.084 10.108-2.173 13.812-5.877 3.788-3.789 5.877-8.817 5.877-14.156S34.298 9.673 30.51 5.884l-.007-.006zM19.91 28.875c-1.291-.006-3.114-.908-5.424-2.686-.363-.233-.837-.687-1.447-1.394-.583-.675-.888-1.259-.927-1.733.071-.447.35-.72.85-.836.532.006 1.226.175 2.05.519.824.337 1.654.823 2.465 1.44.512.337 1.174.94 1.965 1.797.779.843 1.168 1.53 1.168 2.056 0 .448-.233.72-.707.837h.007zm41.233-3.762V22.16c0-1.628-1.382-2.452-4.113-2.452-2.699 0-4.074.824-4.074 2.452v6.455c0 1.628 1.369 2.452 4.074 2.452 2.725 0 4.113-.824 4.113-2.452v-.428h-1.511v.467c0 1.168-.85 1.732-2.602 1.732-1.752 0-2.601-.564-2.601-1.732v-3.542h6.714zm-6.708-2.99c0-1.155.85-1.713 2.602-1.713 1.751 0 2.601.558 2.601 1.712v2.193h-5.203v-2.193zm-4.684-6.715v4.638c-.622-.227-1.492-.337-2.601-.337-2.75 0-4.152.824-4.152 2.452v6.455c0 1.628 1.395 2.452 4.152 2.452 1.064 0 1.94-.117 2.601-.344v.266h1.434V15.408h-1.434zm-.078 13.247c0 1.168-.823 1.732-2.523 1.732-1.803 0-2.68-.564-2.68-1.732v-6.54c0-1.154.877-1.712 2.68-1.712 1.7 0 2.523.558 2.523 1.713v6.539zM79.859 8.337v22.582H77.77V9.35l2.089-1.012zM69.135 8.2c-3.866 0-5.819 1.162-5.819 3.458V27.65c0 2.309 1.96 3.483 5.82 3.483 3.898 0 5.87-1.174 5.87-3.483V11.657c0-2.296-1.972-3.458-5.87-3.458zm3.79 19.508c0 1.706-1.24 2.536-3.79 2.536-2.549 0-3.788-.83-3.788-2.536V11.6c0-1.667 1.239-2.485 3.788-2.485 2.55 0 3.79.811 3.79 2.485v16.108zm41.485-12.929v16.14h-2.088v-16.14h2.088zm21.48.084c-3.86 0-5.819 1.174-5.819 3.484v.901h2.03v-.96c0-1.686 1.239-2.51 3.789-2.51 2.549 0 3.789.824 3.789 2.51v3.017c-.863-.337-2.135-.506-3.789-.506-3.86 0-5.819 1.161-5.819 3.458v3.386c0 2.31 1.959 3.484 5.819 3.484 1.557 0 2.809-.162 3.73-.487v.376h2.141V18.34c0-2.31-1.979-3.484-5.878-3.484l.007.007zm3.73 13.578c-.285 1.194-1.544 1.797-3.73 1.797-1.525 0-2.589-.253-3.153-.753-.422-.37-.636-.966-.636-1.784v-3.529c0-1.654 1.239-2.458 3.789-2.458 2.225 0 3.484.577 3.73 1.719v5.008zM128.923 18.43v1.791h-2.141v-1.875c0-.746-.227-1.349-.668-1.803-.441-.448-1.492-.681-3.121-.681-1.9 0-3.12.519-3.62 1.53 0 .053-.013.124-.026.228-.019.11-.026.324-.026.636V30.99h-2.14V14.772h2.199v.623c.447-.15 1.057-.266 1.862-.364a21.09 21.09 0 012.484-.155c2.005 0 3.348.292 4.094.902.739.596 1.116 1.492 1.116 2.646l-.013.007zm-18.969 4.127v-4.21c0-2.31-1.979-3.484-5.878-3.484-3.86 0-5.819 1.174-5.819 3.483v9.303c0 2.31 1.959 3.484 5.819 3.484 3.899 0 5.878-1.174 5.878-3.484v-.57h-2.089v.629c0 1.706-1.239 2.536-3.789 2.536-2.549 0-3.788-.83-3.788-2.536v-5.151h9.666zm-9.666-4.262c0-1.687 1.239-2.511 3.788-2.511 2.55 0 3.789.824 3.789 2.51V21.5h-7.577v-3.204zm14.122-6.903v1.09h-2.088v-1.09h2.088zm-16.88 3.445l-5 16.082h-1.65l-5.002-16.082h2.096l.019.071 3.685 12.1 3.756-12.171h2.095zm-12.715-3.445v1.09h-2.082v-1.09h2.082zm0 3.387v16.14h-2.082v-16.14h2.082zm63.712 3.042c0-.324-.116-.564-.343-.72-.228-.156-.591-.234-1.077-.234h-1.246v3.452h.467V18.78h.869l.747 1.538h.531l-.778-1.603c.253-.032.454-.123.603-.292a.872.872 0 00.227-.61v.007zm-.7.5c-.149.097-.422.149-.811.149h-.688v-1.278h.688c.357 0 .616.052.785.149.168.097.253.253.253.467 0 .247-.072.415-.221.513h-.006z"/><path d="M149.779 17.497a2.898 2.898 0 00-.642-.96 2.958 2.958 0 00-2.128-.883 2.858 2.858 0 00-2.089.863 3.016 3.016 0 00-.882 2.128 2.91 2.91 0 00.882 2.095 2.9 2.9 0 003.231.655 3.22 3.22 0 00.986-.661c.286-.28.5-.59.642-.947.143-.357.221-.733.221-1.142 0-.402-.071-.785-.221-1.148zm-.272 2.173a2.51 2.51 0 01-.577.85c-.26.26-.558.454-.889.597a2.68 2.68 0 01-1.025.207c-.357 0-.694-.071-1.019-.207a2.62 2.62 0 01-.869-.59 2.714 2.714 0 01-.59-.87 2.58 2.58 0 01-.201-1.018c0-.35.071-.695.207-1.026.136-.324.337-.622.597-.888a2.54 2.54 0 01.856-.571 2.75 2.75 0 012.063 0 2.701 2.701 0 011.453 1.453c.137.324.201.668.201 1.032 0 .363-.064.707-.201 1.024l-.006.007z"/></g><defs><clipPath id="clip0_81_138"><path fill="#fff" d="M0 0h150v40.066H0z"/></clipPath></defs></svg>