<svg width="413" height="51" fill="none" xmlns="http://www.w3.org/2000/svg"><g clip-path="url(#clip0_99_10)" fill="#F7F7F7"><path fill-rule="evenodd" clip-rule="evenodd" d="M238.37 39.45c0 2.38 1.25 3.58 3.79 3.58s3.76-1.2 3.79-3.58V.03L259.2 0v39.45c0 7.14-5.04 10.72-15.11 10.74l-3.83-.04c-3.37 0-6.19-.39-8.44-1.19-2.27.84-5.13 1.26-8.55 1.26l-3.83-.04c-10.09 0-15.15-3.57-15.15-10.7V.06h13.22l.03 39.42c0 2.38 1.27 3.58 3.79 3.58s3.76-1.2 3.79-3.58V.03h13.26v39.42h-.01zM187.6 10.77c0-2.38-1.24-3.58-3.75-3.58s-3.8 1.2-3.83 3.58l.04 28.68c0 2.38 1.28 3.58 3.83 3.58s3.75-1.2 3.75-3.58l-.04-28.68zm13.26 28.68c0 7.16-5.04 10.74-15.11 10.74l-3.79-.04c-10.07 0-15.12-3.57-15.15-10.71l-.04-28.68c0-7.14 5.08-10.7 15.22-10.7h3.71c10.09 0 15.15 3.57 15.15 10.7v28.68l.01.01zm-71.59-28.68c0-7.14 5.08-10.7 15.22-10.7h3.71c10.09 0 15.15 3.57 15.15 10.7l-.04 7.2c0 2.37-1.89 4.74-5.65 7.13 3.79 2.42 5.7 4.79 5.72 7.12l-.08 7.23c0 7.16-5.04 10.74-15.11 10.74h-3.79c-10.09 0-15.15-3.59-15.15-10.78V10.77h.02zm20.86 21.45c0-2.38-1.24-3.58-3.75-3.58s-3.81 1.22-3.86 3.65v7.16c0 2.38 1.28 3.58 3.83 3.58s3.75-1.2 3.75-3.58l.04-7.23h-.01zm-.04-21.45c0-2.38-1.24-3.58-3.75-3.58s-3.8 1.2-3.83 3.58v7.2c0 2.4 1.28 3.58 3.83 3.58s3.75-1.18 3.75-3.58v-7.2zm-45.12 39.42l-13.25.04V10.77C91.73 3.63 96.77.05 106.84.03l3.83.04c10.09 0 15.15 3.57 15.15 10.7v39.42H112.6l-.04-39.42c0-2.38-1.25-3.58-3.79-3.58s-3.76 1.2-3.79 3.58v39.42h-.01zM58.33 10.77c0-2.38-1.24-3.58-3.75-3.58s-3.8 1.2-3.83 3.58v14.36h7.61l-.04-14.36h.01zm0 39.42V32.25l-7.57.04v17.9l-13.25.04V10.77C37.51 3.63 42.56.05 52.65.03l3.79.04c10.09 0 15.15 3.57 15.15 10.7v39.42H58.33zm-45.08 0H0V10.77C0 3.63 5.08.06 15.22.06h3.71c10.09 0 15.15 3.57 15.15 10.7l-.04 7.2c0 2.37-1.89 4.74-5.65 7.13 3.79 2.42 5.7 4.79 5.72 7.12l-.04 17.98H20.85V32.21c0-2.38-1.24-3.58-3.75-3.58s-3.8 1.2-3.83 3.58l-.04 17.98h.02zm7.57-39.42c0-2.38-1.24-3.58-3.75-3.58s-3.8 1.2-3.83 3.58v7.2c0 2.4 1.28 3.58 3.83 3.58s3.75-1.18 3.75-3.58v-7.2zm54.23 39.42V.06H88.3v50.13H75.05z"/><path d="M413 .07v50.07c-.46.02-.93.05-1.39.05-48.61 0-97.21 0-145.82.03-1.26 0-1.56-.28-1.56-1.55.05-15.84.04-31.67 0-47.51 0-.95.23-1.16 1.17-1.16 48.9.03 97.8.02 146.7.02.29 0 .59.03.88.05h.02zm-97.55 26.22c5.99-2.82 11.3-6.29 16.31-10.25.53-.42 1.05-.84 1.46-1.39a3.732 3.732 0 00-.12-4.67c-1.46-1.74-3.64-1.92-5.65-.46-3.72 2.69-7.48 5.33-11.57 7.46-5.69 2.97-11.61 5.24-18.13 5.35-6.25.1-12.5.02-18.74.05-.78 0-.87-.3-.86-.96.03-2.91.03-5.83 0-8.74-.01-2.48-1.63-4.12-3.99-4.1-2.28.02-3.82 1.66-3.82 4.11v27.1c0 2.56 1.63 4.31 3.96 4.28 2.23-.03 3.84-1.81 3.85-4.28 0-2.79.06-5.57-.03-8.36-.03-1.05.33-1.23 1.28-1.22 5.36.04 10.72.1 16.08 0 6.51-.12 12.58 1.52 18.38 4.34 4.84 2.35 9.24 5.38 13.58 8.52 1.85 1.34 3.71 1.33 5.2 0 1.93-1.71 1.77-4.38-.5-6.19-2.08-1.65-4.24-3.2-6.41-4.72-3.17-2.23-6.59-4.04-10.3-5.88l.02.01zm62.34-17.71h-23.05c-1.89 0-3.7.33-5.36 1.25-6.18 3.43-9 8.93-9.31 15.77-.22 4.8-.04 9.62-.04 14.44 0 .46 0 .91.17 1.37.65 1.84 2.48 2.96 4.38 2.64 1.9-.32 3.28-1.91 3.29-3.9.02-4.73-.08-9.46.03-14.18.14-6.12 3.25-9.62 9.51-9.55 14.6.16 29.21.06 43.82.05 2.54 0 4.36-1.67 4.31-3.97-.06-2.53-2.05-3.96-4.32-3.94-7.81.1-15.62.04-23.43.04v-.02zm.82 21.65c7.01 0 14.01.02 21.02 0 2.41 0 4.01-1.63 4-3.95 0-2.28-1.67-3.92-4.04-3.92h-41.78c-.82 0-1.59.13-2.3.57-1.51.94-2.21 2.8-1.71 4.52.48 1.68 1.98 2.78 3.92 2.78 6.96.01 13.93 0 20.89 0z"/></g><defs><clipPath id="clip0_99_10"><path fill="#fff" d="M0 0h413v50.22H0z"/></clipPath></defs></svg>