<svg width="305" height="120" viewBox="0 0 305 120" fill="none" xmlns="http://www.w3.org/2000/svg">
<g clip-path="url(#clip0_428_1772)">
<path fill-rule="evenodd" clip-rule="evenodd" d="M257.278 87.5136C257.943 87.5432 258.608 87.5654 259.28 87.5654C266.45 87.5654 272.765 85.0863 278.37 80.6241C282.166 77.6196 286.922 72.965 286.922 67.7109C286.922 67.1041 286.796 66.6009 286.338 66.2161C285.688 65.6833 284.846 65.5501 284.034 65.5501C279.175 65.5501 273.606 69.4721 270.01 72.4174C264.84 76.6576 260.631 81.7637 257.278 87.5136ZM245.159 89.6152C245.676 87.9576 246.319 86.337 247.065 84.7681C249.487 79.6621 252.951 75.148 256.946 71.1741C261.266 66.8747 266.103 62.9822 271.465 60.0518C275.667 57.7652 280.467 55.9521 285.312 55.9521C288.502 55.9521 291.773 56.6404 294.27 58.7642C296.67 60.8436 297.689 63.6852 297.689 66.8303C297.689 75.8214 292.556 82.7257 285.696 88.0094C277.417 94.3587 267.765 97.0523 257.389 97.0523C256.495 97.0523 255.587 97.0671 254.693 97.0227C254.686 97.0227 254.671 97.0227 254.664 97.0227C254.627 97.2151 254.59 97.4075 254.568 97.5999C254.472 98.2659 254.428 98.9467 254.428 99.6201C254.428 102.188 254.841 105.229 256.636 107.22C258.283 109.07 260.734 109.581 263.112 109.581C267.44 109.581 271.93 107.753 275.682 105.718C279.034 103.905 282.38 101.515 285.467 99.2797C290.666 95.5205 295.747 91.5466 300.768 87.5506C301.559 86.9216 302.629 86.7958 303.538 87.2398C304.446 87.6838 305.015 88.5866 305.015 89.6004V94.4401C305.015 95.2467 304.66 95.9867 304.025 96.4899C298.989 100.508 293.878 104.489 288.635 108.226C285.267 110.631 281.656 113.118 277.993 115.049C273.156 117.595 267.743 119.489 262.219 119.489C257.012 119.489 252.101 118.054 248.52 114.124C245.211 110.528 243.941 105.814 243.705 101.048C243.55 101.122 243.394 101.189 243.232 101.256C240.3 102.521 237.154 103.402 233.942 103.402C231.586 103.402 229.319 102.921 227.162 101.951C225.759 101.307 224.467 100.479 223.3 99.4795C219.246 104.822 214.512 109.84 209.003 113.673C204.217 117.003 198.701 119.482 192.778 119.482C189.654 119.482 186.434 118.801 184.071 116.626C181.708 114.443 180.888 111.408 180.888 108.278C180.888 106.058 181.397 103.749 182.055 101.648C182.631 99.7311 183.384 97.8885 184.285 96.1199C183.606 96.6009 182.911 97.0597 182.21 97.4963L181.774 97.8293C176.501 101.922 153.689 119.978 147.035 119.978C145.602 119.978 144.399 119.282 143.431 118.231C142.449 117.121 141.984 115.73 141.984 114.258C141.984 113.244 142.338 112.067 142.641 111.127C142.774 110.698 142.914 110.269 143.062 109.847C141.681 111.364 140.234 112.792 138.727 114.058C135.042 117.158 130.67 119.489 125.752 119.489C120.833 119.489 117.155 117.417 114.334 113.621C111.196 109.433 110.118 104.275 110.118 99.1243C110.118 94.8841 110.923 90.7696 112.577 86.8624C114.334 82.7109 116.934 78.9665 119.925 75.5994C125.434 69.5683 131.985 64.8027 139.355 61.2876C146.23 58.0242 153.615 55.9373 161.266 55.9373C163.939 55.9373 166.642 56.1667 169.227 56.8402C171.538 57.4174 173.717 58.372 175.763 59.593C176.597 60.0962 177.085 61.0138 177.033 61.9832L176.789 66.6527C176.738 67.5851 176.213 68.4065 175.386 68.8431C174.559 69.2797 173.577 69.2427 172.787 68.7469C171.154 67.7331 169.412 66.8673 167.573 66.3049C165.468 65.6611 163.304 65.3577 161.096 65.3577C154.878 65.3577 148.837 67.1633 143.254 69.7903C137.494 72.5062 132.191 76.1544 128.019 81.0089C125.693 83.7025 123.721 86.6996 122.347 90C121.129 92.8638 120.39 95.8609 120.39 98.9837C120.39 101.566 120.804 104.452 122.34 106.598C123.521 108.212 125.013 109.026 127.014 109.026C130.648 109.026 135.596 104.053 137.856 101.618C141.223 97.9699 144.354 93.8111 147.316 89.8298C152.138 83.3399 156.761 76.6798 161.318 69.9975C161.864 69.1983 162.78 68.7691 163.74 68.8653L168.806 69.3611C169.663 69.4499 170.409 69.9309 170.83 70.6783C171.25 71.4184 171.287 72.3064 170.926 73.0834L155.986 105.192C155.912 105.37 155.845 105.548 155.779 105.725C157.891 104.482 161.081 102.166 162.071 101.463C167.632 97.4667 173.067 93.2412 178.436 88.9862C178.613 88.6754 178.857 88.409 179.145 88.187C182.911 85.3971 186.552 82.4001 189.898 79.1071C191.345 77.6862 194.358 74.6892 195.207 72.8466L201.699 58.5866C202.127 57.6468 203.05 57.0474 204.084 57.0474H209.638C210.531 57.0474 211.351 57.4988 211.838 58.2536C212.318 59.0084 212.392 59.9482 212.023 60.7622L193.76 101.056C193.14 102.403 192.519 103.816 192.098 105.222C191.862 106.066 191.633 107.065 191.633 107.945C191.633 108.241 191.677 109.188 191.892 109.425C192.157 109.677 193.236 109.721 193.575 109.721C197.873 109.721 202.312 106.806 205.517 104.186C210.745 99.9383 215.095 94.4031 218.714 88.742C220.065 81.0015 222.318 73.2832 226.003 66.3197C227.783 62.96 231.593 55.9299 236.061 55.9299C237.427 55.9299 238.432 56.7884 239.008 58.002C239.488 59.0528 239.621 60.3404 239.621 61.4874C239.621 65.9571 237.974 71.0705 236.393 75.2146C234.23 80.7869 231.49 86.1297 228.388 91.2358C228.853 91.9462 229.481 92.4864 230.257 92.9082C231.578 93.6408 233.07 93.885 234.562 93.885C236.748 93.885 238.845 93.2338 240.795 92.2718C242.301 91.5244 243.764 90.5698 245.145 89.5856L245.159 89.6152ZM18.5215 96.2827L45.5285 38.5619C48.1132 33.071 51.0893 26.9808 53.0611 21.2457C53.9769 18.552 54.8483 15.4292 54.8483 12.5654C54.8483 9.08732 53.6667 6.05328 51.2075 3.58905C48.7557 1.16182 45.7426 0 42.3086 0C31.6151 0 23.3292 9.33152 17.8274 17.4938C9.08354 30.4662 3.82542 46.2728 0.465254 61.4504C0.243705 62.442 0.605569 63.4632 1.41053 64.0923L2.7546 65.1431L10.6565 60.5698C11.2843 60.2072 11.72 59.6226 11.8898 58.9196C14.8364 46.776 19.3265 34.7953 26.1724 24.2945C28.5947 20.5871 35.4849 10.4637 40.6322 10.4637C41.4667 10.4637 42.1978 10.6709 42.7812 11.2852C43.409 11.9512 43.601 12.8392 43.601 13.7346C43.601 16.9092 39.0887 26.3666 37.693 29.2896L36.7403 31.258C36.7403 31.258 36.7182 31.3024 36.7034 31.332L4.71901 99.7459C3.43402 102.417 2.08257 105.252 1.06344 108.049C0.539104 109.581 0 111.394 0 113.007C0 114.805 0.384019 116.655 1.59516 118.046C2.81368 119.445 4.51961 120 6.32893 120C11.1366 120 18.6028 111.638 21.542 108.367C22.3839 107.405 23.2184 106.436 24.0751 105.503L68.5548 56.6034L54.1984 86.9142C52.2857 90.888 50.1219 95.3059 48.7188 99.4943C48.0172 101.552 47.3378 103.964 47.3378 106.154C47.3378 110.039 48.6523 113.451 51.6432 115.974C54.7375 118.587 58.6663 119.504 62.6395 119.504C73.2812 119.504 83.3101 112.326 90.791 105.4C102.142 94.8767 111.277 81.4677 118.699 67.9551C124.518 57.2916 130.005 46.1174 134.089 34.6621C136.866 26.8994 139.436 17.8268 139.436 9.52393C139.436 8.88012 139.451 8.21411 139.406 7.5703C139.392 7.2965 139.406 7.4815 139.369 7.2225C139.259 6.37148 138.757 5.64628 138.003 5.23927C137.243 4.83966 136.356 4.83226 135.588 5.21707L130.574 7.7627C129.739 8.18451 129.208 8.99852 129.141 9.93093C128.624 17.5308 126.15 25.6931 123.558 32.812C119.844 43.0094 115.043 52.8589 109.704 62.294C102.821 74.5338 94.5795 86.6774 84.5729 96.5861C79.7062 101.389 70.9107 109.218 63.5847 109.218C62.4327 109.218 60.5791 109.092 59.6559 108.3C58.8657 107.627 58.718 106.332 58.718 105.37C58.718 102.314 61.2511 96.6823 62.5213 93.9442C62.8093 93.3078 63.0973 92.6714 63.3854 92.0424L92.6816 29.1712C93.0139 28.4534 93.0139 27.6468 92.6742 26.929C92.3345 26.2111 91.6994 25.7005 90.9314 25.5081L86.5225 24.4351C85.592 24.2057 84.6246 24.5017 83.9747 25.2047L18.5215 96.2827Z" fill="#1B1B1B"/>
</g>
<defs>
<clipPath id="clip0_428_1772">
<rect width="305" height="120" fill="white"/>
</clipPath>
</defs>
</svg>
