<svg width="413" height="96" fill="none" xmlns="http://www.w3.org/2000/svg"><g clip-path="url(#clip0_427_295)" fill="#1B1B1B"><path fill-rule="evenodd" clip-rule="evenodd" d="M387.62 33.915v10.396h18.08v7.378h-18.08v17.774h-8.77V32.661l6.16-6.134h22.9C400 10.794 383.67 0 364.8 0c-26.62 0-48.21 21.488-48.21 48.005 0 26.517 21.58 48.005 48.21 48.005 26.63 0 48.21-21.488 48.21-48.005 0-4.9-.74-9.629-2.11-14.09h-23.28zm-13.78 16.63v18.918h-8.77V51.69h-31.01v17.774h-8.77V26.527h8.77V44.3h22.97l9.09-17.774h8.98L366.02 44.3l7.83 6.233-.01.01z"/><path d="M70.49 62.244v-28.28H6.42L0 26.587h73.1l6.16 6.134v30.67l-6.16 6.133H30.71V44.361h8.77v17.883h31.01zm62.26 7.279h-12.5C114.09 63.39 94.67 51.64 94.67 51.64v17.883H85.9V26.477h42.49l6.16 6.134v12.895l-6.16 6.133h-20.05l24.41 17.884zm-6.97-35.658H94.67V44.36h31.11V33.866zM184.1 51.64h-33.62v10.495h33.35l6.54 7.378h-42.5c-6.16-6.134-.11-.249-6.16-6.134V32.601l6.16-6.134h36.34c6.16 6.333 0 0 6.16 6.134v12.785l-6.27 6.243v.01zm-33.62-7.28h31.11V33.866h-31.11V44.36zm86.72-10.495h-31.11v28.28h15.56l6.89 7.378h-25.06l-6.16-6.134V32.611c6.16-6.134.22-.03 6.16-6.134h36.34l6.16 6.134v36.912h-8.77V33.865h-.01zm64.7-7.388h-16.08l-5.33 3.136-5.33-3.136h-16.08l-6.16 6.134v36.912h8.77V33.865h10.86l15.88 23.58v-23.58h10.86v35.658h8.77V32.611l-6.16-6.134zM145.95 87.845c.79.597 1.44 1.085 2.09 1.583.16.12.38.229.32.478-.08.348-.38.15-.58.19-.34.069-.61-.11-.87-.32-.51-.398-1.07-.726-1.52-1.184-.81-.827-1.77-.877-2.8-.827-.4.02-.5.16-.47.528.02.388 0 .776 0 1.165.02.398 0 .667-.53.657-.47 0-.58-.17-.57-.627.02-2.151.02-4.312 0-6.463 0-.468.13-.627.59-.617 1.48.03 2.96-.03 4.44.02 1.49.05 2.06.717 2.07 2.26v.717c0 1.693-.41 2.18-2.16 2.43l-.01.01zm-1.94-.847h.61c2.37 0 2.38-.03 2.36-2.509 0-.866-.41-1.185-1.16-1.195-.67-.01-1.33 0-2 0-1.133 0-1.7.588-1.7 1.763 0 1.294.633 1.941 1.9 1.941h-.01zm101.64-.776c0-1.046.02-2.091 0-3.147-.02-.518.16-.667.65-.657 1.94.02 3.89.01 5.83 0 .32 0 .64-.05.63.478-.01.597-.42.378-.68.378-1.57.02-3.13.02-4.7 0-.44 0-.58.1-.59.588-.04 1.872-.06 1.872 1.71 1.872h2.7c.25 0 .51-.07.53.368.02.498-.28.418-.56.418-1.28 0-2.55.02-3.83 0-.4 0-.53.1-.55.538-.09 2.17-.1 2.17 2.01 2.17h3.39c.3 0 .56-.019.56.439 0 .468-.26.448-.56.448-2 0-4-.01-6 0-.42 0-.55-.15-.54-.567.02-1.106 0-2.211 0-3.326zm-159.87-.02c0-1.076.01-2.151 0-3.226 0-.429.13-.568.55-.558 1.97.02 3.94.01 5.91 0 .31 0 .56 0 .57.448.01.498-.29.418-.57.418-1.59 0-3.19.02-4.78-.01-.5-.01-.62.15-.62.648-.01 1.812-.03 1.812 1.68 1.812.84 0 1.68-.02 2.52.01.28 0 .75-.24.73.418-.01.607-.45.338-.69.348-1.22.03-2.43.03-3.65 0-.45-.01-.58.12-.59.598-.05 2.11-.07 2.11 1.97 2.11h3.39c.34 0 .63-.029.61.489-.02.498-.34.388-.6.398-1.94 0-3.88-.02-5.82.02-.54 0-.61-.209-.6-.677.03-1.075 0-2.15 0-3.226l-.01-.02zm217.89 3.903c-.61 0-1.22.04-1.83-.01-.32-.03-.89.329-.88-.448.02-.697.54-.398.84-.398 1.25-.04 2.49 0 3.74-.02.97 0 1.37-.368 1.37-1.195 0-.846-.36-1.155-1.37-1.185-.98-.02-1.97.08-2.95-.14-1.02-.228-1.59-.886-1.62-1.901-.03-1.125.52-2.002 1.52-2.21 1.72-.36 3.47-.1 5.2-.16.32-.01.36.209.37.478.02.348-.17.388-.43.388h-3.83c-.35 0-.69.03-1.02.18-.56.258-.73.756-.72 1.314.01.558.29.936.86 1.075 1.01.25 2.02.07 3.03.12 1.55.07 2.32 1.085 1.98 2.639-.2.915-.84 1.413-2.01 1.473-.75.04-1.51 0-2.26 0h.01zm-270.38 0c-.89 0-1.61-.01-2.34 0-.32 0-.46-.08-.46-.448s.13-.448.46-.448c1.36.01 2.73.01 4.09 0 .96 0 1.38-.388 1.38-1.205 0-.806-.42-1.145-1.4-1.175-.98-.03-1.97.09-2.95-.14-.98-.228-1.51-.756-1.57-1.632-.09-1.295.32-2.151 1.32-2.42 1.76-.468 3.58-.14 5.37-.21.37-.019.27.31.29.529.04.388-.24.328-.46.328H33.1c-.52 0-.99.13-1.3.578-.63.896-.16 1.961.98 2.08.86.09 1.74.02 2.61.04 1.49.03 2.17.777 2.09 2.3-.04.887-.49 1.415-1.31 1.664-1 .299-2.02.08-2.86.16h-.02zm163.07-3.853c0-1.076.02-2.151 0-3.217-.01-.448.1-.617.57-.617.48 0 .49.249.49.617 0 2.171-.01 4.352 0 6.523 0 .418-.1.567-.53.557-.42 0-.54-.13-.53-.557.03-1.106 0-2.201 0-3.306z"/></g><defs><clipPath id="clip0_427_295"><path fill="#fff" d="M0 0h413v96H0z"/></clipPath></defs></svg>