<svg data-name="Layer 1" xmlns="http://www.w3.org/2000/svg" viewBox="0 0 413 96.41"><path d="M387.62 34.06V44.5h18.08v7.41h-18.08v17.85h-8.77V32.8l6.16-6.16h22.9C400 10.84 383.67 0 364.8 0c-26.62 0-48.21 21.58-48.21 48.21s21.58 48.21 48.21 48.21 48.21-21.58 48.21-48.21c0-4.92-.74-9.67-2.11-14.15h-23.26zm-13.78 16.7v19h-8.77V51.91h-31.01v17.85h-8.77V26.64h8.77v17.85h22.97l9.09-17.85h8.98l-9.08 17.85 7.83 6.26z" fill-rule="evenodd" fill="#c89d46"/><path d="M70.49 62.51v-28.4H6.42L0 26.7h73.1l6.16 6.16v30.8l-6.16 6.16H30.71V44.55h8.77v17.96h31.01zm62.26 7.31h-12.5c-6.16-6.16-25.58-17.96-25.58-17.96v17.96H85.9V26.59h42.49l6.16 6.16V45.7l-6.16 6.16h-20.05l24.41 17.96zm-6.97-35.81H94.67v10.54h31.11V34.01zm58.32 17.85h-33.62V62.4h33.35l6.54 7.41h-42.5c-6.16-6.16-.11-.25-6.16-6.16V32.74l6.16-6.16h36.34c6.16 6.36 0 0 6.16 6.16v12.84l-6.27 6.27zm-33.62-7.31h31.11V34.01h-31.11v10.54zm86.72-10.54h-31.11v28.4h15.56l6.89 7.41h-25.06l-6.16-6.16V32.75c6.16-6.16.22-.03 6.16-6.16h36.34l6.16 6.16v37.07h-8.77V34.01zm64.7-7.42h-16.08l-5.33 3.15-5.33-3.15h-16.08l-6.16 6.16v37.07h8.77V34.01h10.86l15.88 23.68V34.01h10.86v35.81h8.77V32.75l-6.16-6.16zM145.95 88.22c.79.6 1.44 1.09 2.09 1.59.16.12.38.23.32.48-.08.35-.38.15-.58.19-.34.07-.61-.11-.87-.32-.51-.4-1.07-.73-1.52-1.19-.81-.83-1.77-.88-2.8-.83-.4.02-.5.16-.47.53.02.39 0 .78 0 1.17.02.4 0 .67-.53.66-.47 0-.58-.17-.57-.63.02-2.16.02-4.33 0-6.49 0-.47.13-.63.59-.62 1.48.03 2.96-.03 4.44.02 1.49.05 2.06.72 2.07 2.27v.72c0 1.7-.41 2.19-2.16 2.44zm-1.94-.85h.61c2.37 0 2.38-.03 2.36-2.52 0-.87-.41-1.19-1.16-1.2-.67-.01-1.33 0-2 0q-1.7 0-1.7 1.77 0 1.95 1.9 1.95zm101.64-.78c0-1.05.02-2.1 0-3.16-.02-.52.16-.67.65-.66 1.94.02 3.89.01 5.83 0 .32 0 .64-.05.63.48-.01.6-.42.38-.68.38-1.57.02-3.13.02-4.7 0-.44 0-.58.1-.59.59-.04 1.88-.06 1.88 1.71 1.88h2.7c.25 0 .51-.07.53.37.02.5-.28.42-.56.42-1.28 0-2.55.02-3.83 0-.4 0-.53.1-.55.54-.09 2.18-.1 2.18 2.01 2.18h3.39c.3 0 .56-.02.56.44 0 .47-.26.45-.56.45-2 0-4-.01-6 0-.42 0-.55-.15-.54-.57.02-1.11 0-2.22 0-3.34zm-159.87-.02c0-1.08.01-2.16 0-3.24 0-.43.13-.57.55-.56 1.97.02 3.94.01 5.91 0 .31 0 .56 0 .57.45.01.5-.29.42-.57.42-1.59 0-3.19.02-4.78-.01-.5-.01-.62.15-.62.65-.01 1.82-.03 1.82 1.68 1.82.84 0 1.68-.02 2.52.01.28 0 .75-.24.73.42-.01.61-.45.34-.69.35-1.22.03-2.43.03-3.65 0-.45-.01-.58.12-.59.6-.05 2.12-.07 2.12 1.97 2.12h3.39c.34 0 .63-.03.61.49-.02.5-.34.39-.6.4-1.94 0-3.88-.02-5.82.02-.54 0-.61-.21-.6-.68.03-1.08 0-2.16 0-3.24zm217.89 3.92c-.61 0-1.22.04-1.83-.01-.32-.03-.89.33-.88-.45.02-.7.54-.4.84-.4 1.25-.04 2.49 0 3.74-.02.97 0 1.37-.37 1.37-1.2 0-.85-.36-1.16-1.37-1.19-.98-.02-1.97.08-2.95-.14-1.02-.23-1.59-.89-1.62-1.91-.03-1.13.52-2.01 1.52-2.22 1.72-.36 3.47-.1 5.2-.16.32-.01.36.21.37.48.02.35-.17.39-.43.39h-3.83c-.35 0-.69.03-1.02.18-.56.26-.73.76-.72 1.32.01.56.29.94.86 1.08 1.01.25 2.02.07 3.03.12 1.55.07 2.32 1.09 1.98 2.65-.2.92-.84 1.42-2.01 1.48-.75.04-1.51 0-2.26 0zm-270.38 0c-.89 0-1.61-.01-2.34 0-.32 0-.46-.08-.46-.45s.13-.45.46-.45c1.36.01 2.73.01 4.09 0 .96 0 1.38-.39 1.38-1.21 0-.81-.42-1.15-1.4-1.18-.98-.03-1.97.09-2.95-.14-.98-.23-1.51-.76-1.57-1.64-.09-1.3.32-2.16 1.32-2.43 1.76-.47 3.58-.14 5.37-.21.37-.02.27.31.29.53.04.39-.24.33-.46.33H33.1c-.52 0-.99.13-1.3.58-.63.9-.16 1.97.98 2.09.86.09 1.74.02 2.61.04 1.49.03 2.17.78 2.09 2.31-.04.89-.49 1.42-1.31 1.67-1 .3-2.02.08-2.86.16zm163.07-3.87c0-1.08.02-2.16 0-3.23-.01-.45.1-.62.57-.62.48 0 .49.25.49.62 0 2.18-.01 4.37 0 6.55 0 .42-.1.57-.53.56-.42 0-.54-.13-.53-.56.03-1.11 0-2.21 0-3.32z" fill="#c89d46"/></svg>