<svg width="305" height="120" viewBox="0 0 305 120" fill="none" xmlns="http://www.w3.org/2000/svg">
<g clip-path="url(#clip0_428_2276)">
<path fill-rule="evenodd" clip-rule="evenodd" d="M122.996 38.0213L140.957 69.4258H104.962L122.996 38.0213ZM71.9957 88.5142H173.842L122.915 0L71.9883 88.5142H71.9957Z" fill="#1B1B1B"/>
<path fill-rule="evenodd" clip-rule="evenodd" d="M0 25.6386V26.0309C0 30.3164 0.155085 32.8847 1.78717 36.8593C3.3454 40.7524 5.3615 43.4836 8.08656 46.2073C12.2074 50.3373 17.1036 52.7502 22.9378 53.5348C23.3292 53.6162 23.7132 53.6162 24.1784 53.6902L42.2938 53.8456C45.3291 53.8456 47.6553 55.0151 49.1323 57.5094C49.5237 58.0571 49.7527 58.5974 49.989 59.3005C51.3109 64.0523 48.3569 68.6486 43.8447 69.3517C42.6778 69.5886 31.8736 69.4331 29.695 69.4331H3.03523C2.56998 69.4331 1.55823 69.2777 1.55823 69.744V88.5215H42.8403C50.0702 88.5215 56.3696 85.7164 61.2659 80.8092C63.5995 78.3963 65.1504 76.4423 66.7086 73.2523C68.0305 70.684 69.2712 66.3985 69.2712 62.6534C69.2712 58.3679 68.961 55.5628 67.484 51.7436C66.4723 49.2493 65.2316 47.0659 63.5995 45.1193C60.6455 41.4556 56.4435 37.9473 51.4734 36.3116C48.7557 35.379 46.1857 34.8313 42.5301 34.8313H26.8223C23.8683 34.8313 21.4608 33.351 20.0576 31.0935C18.972 29.3024 18.6619 27.4298 19.1271 25.2464C19.7475 21.8195 23.0929 19.0884 26.7484 19.0884H67.7203V0.155396H25.4265C21.926 0.155396 17.0298 1.48026 14.2309 3.1974C12.1335 4.44085 11.5132 4.67769 9.48971 6.39483C8.1678 7.56426 7.77639 8.03056 6.6908 9.19999C5.52397 10.4434 4.51223 11.7683 3.65557 13.2486C3.41925 13.6409 3.26416 13.9517 3.03523 14.3366C1.32191 17.2972 0 21.9749 0 25.6386Z" fill="#1B1B1B"/>
<path fill-rule="evenodd" clip-rule="evenodd" d="M179.514 88.5141H248.866V69.7366C248.866 69.4997 248.785 69.4257 248.556 69.4257H198.567V0.155396H179.521V88.5141H179.514Z" fill="#1B1B1B"/>
<path fill-rule="evenodd" clip-rule="evenodd" d="M305 0.155396H235.803V19.0884H260.919V88.5141H279.891V19.0884H305V0.155396Z" fill="#1B1B1B"/>
<path d="M119.651 117.483C120.581 118.187 121.283 118.727 122.058 119.275C122.214 119.356 122.524 119.511 122.45 119.741C122.369 120.133 121.985 119.896 121.748 119.978C121.357 120.059 121.047 119.822 120.737 119.667C120.19 119.201 119.496 118.808 118.949 118.342C118.019 117.483 116.926 117.409 115.759 117.409C115.294 117.491 115.139 117.646 115.213 118.031C115.213 118.423 115.131 118.89 115.213 119.275C115.213 119.741 115.213 119.978 114.592 119.978C114.046 119.978 113.891 119.822 113.891 119.356V112.265C113.891 111.799 114.046 111.644 114.592 111.644C116.306 111.644 118.011 111.562 119.725 111.644C121.438 111.725 122.132 112.421 122.132 114.138V114.915C122.132 116.706 121.667 117.254 119.644 117.483H119.651ZM117.398 116.625H118.1C120.899 116.625 120.899 116.544 120.818 113.901C120.818 112.969 120.352 112.576 119.496 112.576H117.162C115.867 112.576 115.22 113.225 115.22 114.523C115.22 115.924 115.946 116.625 117.398 116.625Z" fill="#1B1B1B"/>
<path d="M213.885 115.774V112.347C213.804 111.799 214.04 111.644 214.586 111.644H221.351C221.742 111.644 222.126 111.562 222.126 112.191C222.126 112.821 221.661 112.584 221.351 112.584H215.908C215.362 112.584 215.207 112.665 215.207 113.205C215.153 114.557 215.8 115.233 217.149 115.233H220.339C220.576 115.233 220.886 115.152 220.886 115.626C220.967 116.173 220.576 116.092 220.265 116.092H215.834C215.369 116.092 215.214 116.173 215.214 116.64C215.111 118.248 215.889 119.053 217.548 119.053H221.432C221.824 119.053 222.134 118.971 222.134 119.519C222.134 119.985 221.824 119.985 221.513 119.985H214.52C214.055 119.985 213.9 119.83 213.9 119.363V115.781L213.885 115.774Z" fill="#1B1B1B"/>
<path d="M60.6461 115.774V112.266C60.6461 111.799 60.8011 111.644 61.2664 111.644H68.1861C68.4963 111.644 68.8065 111.644 68.8065 112.11C68.8065 112.658 68.4963 112.576 68.1861 112.576H62.5883C62.0418 112.576 61.8867 112.732 61.8867 113.28C61.8867 115.226 61.8055 115.226 63.829 115.226H66.783C67.0932 115.226 67.6396 114.989 67.6396 115.692C67.5584 116.314 67.0932 116.085 66.783 116.085H62.5883C62.0418 116.085 61.8867 116.24 61.8867 116.706C61.8326 118.266 62.5834 119.045 64.1392 119.045H68.1049C68.4963 119.045 68.8065 118.964 68.8065 119.512C68.8065 120.059 68.4151 119.978 68.1049 119.978H61.3402C60.7199 119.978 60.6387 119.741 60.6387 119.275V115.766L60.6461 115.774Z" fill="#1B1B1B"/>
<path d="M270.328 119.978H268.231C267.84 119.896 267.219 120.289 267.219 119.43C267.219 118.727 267.84 119.038 268.15 119.038C269.627 118.956 271.104 119.038 272.507 119.038C273.674 119.038 274.139 118.646 274.139 117.713C274.139 116.78 273.674 116.469 272.507 116.388C271.34 116.388 270.254 116.544 269.088 116.307C267.921 115.996 267.219 115.293 267.219 114.205C267.138 112.961 267.84 112.021 269.006 111.792C270.949 111.399 272.972 111.71 274.996 111.636C275.387 111.636 275.461 111.873 275.461 112.184C275.461 112.495 275.225 112.576 274.914 112.576H270.483C270.092 112.576 269.708 112.576 269.317 112.732C268.696 113.043 268.46 113.59 268.46 114.212C268.541 114.834 268.851 115.226 269.472 115.381C270.639 115.618 271.805 115.463 272.972 115.463C274.841 115.544 275.69 116.706 275.306 118.349C275.07 119.363 274.294 119.911 272.972 119.985H270.328V119.978Z" fill="#1B1B1B"/>
<path d="M10.7305 119.978H8.01283C7.62143 119.978 7.46634 119.896 7.46634 119.512C7.46634 119.127 7.62143 119.045 8.01283 119.045H12.754C13.8396 119.045 14.3122 118.579 14.3122 117.72C14.3122 116.862 13.847 116.477 12.6801 116.396C11.5945 116.396 10.4277 116.551 9.26089 116.314C8.1753 116.003 7.54757 115.456 7.47373 114.523C7.39249 113.124 7.86513 112.184 9.03196 111.873C11.0554 111.326 13.1528 111.718 15.2501 111.636C15.6415 111.636 15.5603 111.947 15.5603 112.184C15.6415 112.65 15.2501 112.576 15.0138 112.576H10.5016C9.88123 112.576 9.33474 112.732 8.94334 113.198C8.24176 114.131 8.78825 115.3 10.1102 115.456C11.1219 115.537 12.1337 115.456 13.1454 115.456C14.8587 115.537 15.6341 116.314 15.5529 118.024C15.4717 118.956 15.0064 119.504 13.9947 119.815C12.9091 120.126 11.661 119.896 10.7305 119.97V119.978Z" fill="#1B1B1B"/>
<path d="M167.543 115.774V112.266C167.543 111.799 167.624 111.644 168.163 111.644C168.784 111.644 168.784 111.881 168.784 112.266C168.784 114.678 168.702 117.017 168.784 119.356C168.784 119.822 168.629 119.978 168.163 119.978C167.698 119.978 167.543 119.822 167.543 119.356V115.774Z" fill="#1B1B1B"/>
</g>
<defs>
<clipPath id="clip0_428_2276">
<rect width="305" height="120" fill="white"/>
</clipPath>
</defs>
</svg>
