<svg width="41" height="41" fill="none" xmlns="http://www.w3.org/2000/svg"><path d="M20.21 0C9.044 0 0 9.08 0 20.288c0 11.21 9.044 20.289 20.21 20.289 11.165 0 20.21-9.08 20.21-20.289C40.42 9.08 31.374 0 20.21 0zm0 2.785c9.642 0 17.476 7.864 17.476 17.503 0 9.64-7.834 17.545-17.476 17.545-9.643 0-17.436-7.865-17.436-17.545 0-9.68 7.848-17.503 17.436-17.503z" fill="#F7F7F7"/><path fill-rule="evenodd" clip-rule="evenodd" d="M22.807 12.752h2.503V8.943c-.368-.04-.79-.095-1.21-.136-.749-.041-1.483-.041-2.272-.041a5.68 5.68 0 00-3.196.983c-1.06.791-1.673 1.911-1.904 3.208a9.99 9.99 0 00-.136 1.68v2.88h-3.658v4.287h3.658v10.8h4.406V21.859h3.659c.19-1.447.367-2.84.557-4.328h-4.216s0-2.144.041-3.072c0-1.256.748-1.625 1.768-1.68v-.027z" fill="#F7F7F7"/></svg>