<svg width="42" height="41" fill="none" xmlns="http://www.w3.org/2000/svg"><path d="M21 0C9.834 0 .79 9.08.79 20.288c0 11.21 9.044 20.289 20.21 20.289s20.21-9.08 20.21-20.289C41.21 9.08 32.165 0 21 0zm0 2.785c9.642 0 17.476 7.864 17.476 17.503 0 9.64-7.834 17.545-17.476 17.545-9.643 0-17.435-7.865-17.435-17.545 0-9.68 7.833-17.503 17.435-17.503z" fill="#F7F7F7"/><path d="M28.235 14.609c0 .696-.598 1.297-1.292 1.297-.693 0-1.292-.6-1.292-1.297s.599-1.297 1.292-1.297c.694 0 1.292.6 1.292 1.297zM21.19 23.92a3.604 3.604 0 01-3.522-3.632c.04-1.952 1.618-3.536 3.563-3.536 2 .041 3.563 1.625 3.523 3.632 0 1.952-1.619 3.536-3.564 3.536zm.041-9.08c-3.06 0-5.521 2.472-5.521 5.49 0 3.017 2.461 5.488 5.521 5.543 3.02 0 5.467-2.472 5.467-5.544a5.46 5.46 0 00-5.467-5.488zm8.582 10.896c-.327 1.857-1.523 3.031-3.427 3.263-1.714.191-9.452.273-11.03-.191-1.523-.423-2.407-1.488-2.693-3.031-.231-1.488-.272-8.888 0-10.84.272-1.857 1.523-3.031 3.387-3.264 1.904-.19 8.758-.232 10.567.041 1.85.328 3.019 1.53 3.196 3.44.231 1.776.272 8.657 0 10.568v.014zm1.945-10.745c-.136-1.393-.694-2.649-1.714-3.673-1.115-1.064-2.462-1.529-3.944-1.583-2.502-.137-8.486-.232-10.622.095-2.366.424-3.944 1.816-4.583 4.192-.503 1.816-.421 10.24-.136 12.055.422 2.471 1.85 4.096 4.311 4.697 1.673.423 9.97.369 11.873.096 2.462-.424 4.04-1.857 4.679-4.329.462-1.856.326-9.87.136-11.536v-.014z" fill="#F7F7F7"/></svg>