<svg width="41" height="41" fill="none" xmlns="http://www.w3.org/2000/svg"><path d="M20.79.423C9.625.423.58 9.503.58 20.71.58 31.921 9.626 41 20.79 41 31.956 41 41 31.92 41 20.71 41 9.502 31.956.423 20.79.423zm0 2.744c9.643 0 17.476 7.864 17.476 17.544S30.433 38.214 20.79 38.214c-9.642 0-17.435-7.864-17.435-17.503S11.19 3.167 20.79 3.167z" fill="#F7F7F7"/><path fill-rule="evenodd" clip-rule="evenodd" d="M18.193 23.92c2.176-1.16 4.352-2.28 6.582-3.44-2.23-1.161-4.406-2.28-6.582-3.441v6.88zm-5.835 3.809c-.788-.232-1.346-.792-1.618-1.584-.694-1.952-.925-10.103.462-11.728.463-.56 1.02-.887 1.768-.928 3.659-.423 14.974-.328 16.32.136.748.274 1.292.751 1.578 1.53.789 2.007.789 9.352-.095 11.304-.231.505-.653.888-1.156 1.16-1.347.697-15.436.697-17.245.096l-.014.014z" fill="#F7F7F7"/></svg>