<svg width="413" height="51" viewBox="0 0 413 51" fill="none" xmlns="http://www.w3.org/2000/svg">
<g clip-path="url(#clip0_99_10)">
<path fill-rule="evenodd" clip-rule="evenodd" d="M238.37 39.45C238.37 41.83 239.62 43.03 242.16 43.03C244.7 43.03 245.92 41.83 245.95 39.45V0.03L259.2 0V39.45C259.2 46.59 254.16 50.17 244.09 50.19L240.26 50.15C236.89 50.15 234.07 49.76 231.82 48.96C229.55 49.8 226.69 50.22 223.27 50.22L219.44 50.18C209.35 50.18 204.29 46.61 204.29 39.48V0.06H217.51L217.54 39.48C217.54 41.86 218.81 43.06 221.33 43.06C223.85 43.06 225.09 41.86 225.12 39.48V0.03H238.38V39.45H238.37ZM187.6 10.77C187.6 8.39 186.36 7.19 183.85 7.19C181.34 7.19 180.05 8.39 180.02 10.77L180.06 39.45C180.06 41.83 181.34 43.03 183.89 43.03C186.44 43.03 187.64 41.83 187.64 39.45L187.6 10.77ZM200.86 39.45C200.86 46.61 195.82 50.19 185.75 50.19L181.96 50.15C171.89 50.15 166.84 46.58 166.81 39.44L166.77 10.76C166.77 3.62 171.85 0.06 181.99 0.06H185.7C195.79 0.06 200.85 3.63 200.85 10.76V39.44L200.86 39.45ZM129.27 10.77C129.27 3.63 134.35 0.07 144.49 0.07H148.2C158.29 0.07 163.35 3.64 163.35 10.77L163.31 17.97C163.31 20.34 161.42 22.71 157.66 25.1C161.45 27.52 163.36 29.89 163.38 32.22L163.3 39.45C163.3 46.61 158.26 50.19 148.19 50.19H144.4C134.31 50.19 129.25 46.6 129.25 39.41V10.77H129.27ZM150.13 32.22C150.13 29.84 148.89 28.64 146.38 28.64C143.87 28.64 142.57 29.86 142.52 32.29V39.45C142.52 41.83 143.8 43.03 146.35 43.03C148.9 43.03 150.1 41.83 150.1 39.45L150.14 32.22H150.13ZM150.09 10.77C150.09 8.39 148.85 7.19 146.34 7.19C143.83 7.19 142.54 8.39 142.51 10.77V17.97C142.51 20.37 143.79 21.55 146.34 21.55C148.89 21.55 150.09 20.37 150.09 17.97V10.77ZM104.97 50.19L91.72 50.23V10.77C91.73 3.63 96.77 0.05 106.84 0.03L110.67 0.07C120.76 0.07 125.82 3.64 125.82 10.77V50.19H112.6L112.56 10.77C112.56 8.39 111.31 7.19 108.77 7.19C106.23 7.19 105.01 8.39 104.98 10.77V50.19H104.97ZM58.33 10.77C58.33 8.39 57.09 7.19 54.58 7.19C52.07 7.19 50.78 8.39 50.75 10.77V25.13H58.36L58.32 10.77H58.33ZM58.33 50.19V32.25L50.76 32.29V50.19L37.51 50.23V10.77C37.51 3.63 42.56 0.05 52.65 0.03L56.44 0.07C66.53 0.07 71.59 3.64 71.59 10.77V50.19H58.33ZM13.25 50.19H0V10.77C0 3.63 5.08 0.06 15.22 0.06H18.93C29.02 0.06 34.08 3.63 34.08 10.76L34.04 17.96C34.04 20.33 32.15 22.7 28.39 25.09C32.18 27.51 34.09 29.88 34.11 32.21L34.07 50.19H20.85V32.21C20.85 29.83 19.61 28.63 17.1 28.63C14.59 28.63 13.3 29.83 13.27 32.21L13.23 50.19H13.25ZM20.82 10.77C20.82 8.39 19.58 7.19 17.07 7.19C14.56 7.19 13.27 8.39 13.24 10.77V17.97C13.24 20.37 14.52 21.55 17.07 21.55C19.62 21.55 20.82 20.37 20.82 17.97V10.77ZM75.05 50.19V0.06H88.3V50.19H75.05Z" fill="#F7F7F7"/>
<path d="M413 0.07C413 16.76 413 33.45 413 50.14C412.54 50.16 412.07 50.19 411.61 50.19C363 50.19 314.4 50.19 265.79 50.22C264.53 50.22 264.23 49.94 264.23 48.67C264.28 32.83 264.27 17 264.23 1.16C264.23 0.21 264.46 0 265.4 0C314.3 0.03 363.2 0.02 412.1 0.02C412.39 0.02 412.69 0.05 412.98 0.07H413ZM315.45 26.29C321.44 23.47 326.75 20 331.76 16.04C332.29 15.62 332.81 15.2 333.22 14.65C334.28 13.25 334.23 11.33 333.1 9.98C331.64 8.24 329.46 8.06 327.45 9.52C323.73 12.21 319.97 14.85 315.88 16.98C310.19 19.95 304.27 22.22 297.75 22.33C291.5 22.43 285.25 22.35 279.01 22.38C278.23 22.38 278.14 22.08 278.15 21.42C278.18 18.51 278.18 15.59 278.15 12.68C278.14 10.2 276.52 8.56 274.16 8.58C271.88 8.6 270.34 10.24 270.34 12.69C270.34 21.72 270.34 30.76 270.34 39.79C270.34 42.35 271.97 44.1 274.3 44.07C276.53 44.04 278.14 42.26 278.15 39.79C278.15 37 278.21 34.22 278.12 31.43C278.09 30.38 278.45 30.2 279.4 30.21C284.76 30.25 290.12 30.31 295.48 30.21C301.99 30.09 308.06 31.73 313.86 34.55C318.7 36.9 323.1 39.93 327.44 43.07C329.29 44.41 331.15 44.4 332.64 43.07C334.57 41.36 334.41 38.69 332.14 36.88C330.06 35.23 327.9 33.68 325.73 32.16C322.56 29.93 319.14 28.12 315.43 26.28L315.45 26.29ZM377.79 8.58C370.11 8.58 362.42 8.58 354.74 8.58C352.85 8.58 351.04 8.91 349.38 9.83C343.2 13.26 340.38 18.76 340.07 25.6C339.85 30.4 340.03 35.22 340.03 40.04C340.03 40.5 340.03 40.95 340.2 41.41C340.85 43.25 342.68 44.37 344.58 44.05C346.48 43.73 347.86 42.14 347.87 40.15C347.89 35.42 347.79 30.69 347.9 25.97C348.04 19.85 351.15 16.35 357.41 16.42C372.01 16.58 386.62 16.48 401.23 16.47C403.77 16.47 405.59 14.8 405.54 12.5C405.48 9.97 403.49 8.54 401.22 8.56C393.41 8.66 385.6 8.6 377.79 8.6V8.58ZM378.61 30.23C385.62 30.23 392.62 30.25 399.63 30.23C402.04 30.23 403.64 28.6 403.63 26.28C403.63 24 401.96 22.36 399.59 22.36C385.66 22.36 371.74 22.36 357.81 22.36C356.99 22.36 356.22 22.49 355.51 22.93C354 23.87 353.3 25.73 353.8 27.45C354.28 29.13 355.78 30.23 357.72 30.23C364.68 30.24 371.65 30.23 378.61 30.23Z" fill="#F7F7F7"/>
</g>
<defs>
<clipPath id="clip0_99_10">
<rect width="413" height="50.22" fill="white"/>
</clipPath>
</defs>
</svg>
