<svg width="150" height="41" viewBox="0 0 150 41" fill="none" xmlns="http://www.w3.org/2000/svg">
<g clip-path="url(#clip0_81_138)">
<path d="M30.5034 5.87752C26.7148 2.08892 21.6871 0 16.3481 0C14.0191 0 11.6967 0.415189 9.45204 1.23259C9.08875 1.36234 8.73194 1.50506 8.38812 1.65427C6.56518 2.43275 4.89793 3.45775 3.4318 4.69683L3.55506 4.85901C7.43448 2.21218 12.008 0.75253 16.4389 0.75253C21.7261 0.75253 26.3775 2.73117 29.8871 6.46787C34.4218 11.3009 36.1344 18.4175 34.2401 24.6064C32.5015 30.2958 28.0642 34.2207 21.7455 35.6608C20.727 35.8944 19.6501 36.0112 18.5408 36.0112C12.0729 36.0112 5.54018 32.1512 3.01661 26.8316C1.50506 23.6528 0.739555 18.5927 5.66344 12.553C8.58922 9.6272 12.4686 8.01834 16.5881 8.01834C17.4379 8.01834 18.3462 8.10267 19.2933 8.26486C19.436 8.29081 19.5788 8.31676 19.7345 8.34919C19.8383 8.36865 19.9356 8.3946 20.0394 8.41407C20.6621 8.5503 20.8892 9.23147 20.8892 9.76992V23.8344C20.8243 23.7501 20.7595 23.6593 20.6946 23.575C19.955 22.6862 19.0403 21.9531 17.9764 21.4082C16.906 20.8697 15.9004 20.5778 14.9728 20.5454C13.9802 20.5454 13.2147 20.6621 12.6438 20.9087C11.4047 21.4212 10.7495 22.3488 10.7365 23.5879C10.7106 25.9623 13.0266 28.901 14.9663 29.7509C16.0951 30.2439 17.2174 30.4904 18.2943 30.4904C19.3452 30.4904 20.2405 30.218 20.9476 29.6795C21.5833 29.2643 21.9207 28.5832 21.9596 27.649L21.9661 9.51042C21.9661 9.04982 21.9401 8.6022 21.6417 8.20647L21.6223 8.18052C21.4406 7.94698 21.2006 7.74587 20.9216 7.58369C20.6362 7.4215 20.3118 7.29824 19.968 7.23337C19.8188 7.20093 19.6631 7.17499 19.5009 7.14904C18.4889 6.97388 17.5158 6.88306 16.5946 6.88306C12.1767 6.88306 8.01185 8.61517 4.87198 11.755C1.73212 14.8949 0 19.0598 0 23.4776C0 27.8955 1.73212 32.0604 4.87198 35.2002C7.92103 38.2493 11.9626 39.9814 16.2572 40.0657L16.6011 40.0722H16.6984C21.9077 39.9879 26.8056 37.899 30.5099 34.1947C34.2985 30.4061 36.3874 25.3784 36.3874 20.0394C36.3874 14.7003 34.2985 9.67261 30.5099 5.88401L30.5034 5.87752ZM19.9096 28.8751C18.6186 28.8686 16.7957 27.9669 14.4862 26.1893C14.1229 25.9558 13.6493 25.5017 13.0395 24.7946C12.4557 24.1199 12.1508 23.536 12.1118 23.0625C12.1832 22.6148 12.4622 22.3424 12.9617 22.2256C13.4936 22.2321 14.1878 22.4007 15.0117 22.7446C15.8356 23.0819 16.6659 23.5685 17.4769 24.1848C17.9894 24.5221 18.6511 25.1254 19.4425 25.9818C20.221 26.8251 20.6102 27.5128 20.6102 28.0382C20.6102 28.4859 20.3767 28.7583 19.9031 28.8751H19.9096Z" fill="#F7F7F7"/>
<path d="M61.1431 25.1129V22.1612C61.1431 20.5329 59.7613 19.709 57.0301 19.709C54.3314 19.709 52.9561 20.5329 52.9561 22.1612V28.6161C52.9561 30.2444 54.3249 31.0683 57.0301 31.0683C59.7548 31.0683 61.1431 30.2444 61.1431 28.6161V28.1879H59.6315V28.655C59.6315 29.8227 58.7817 30.3871 57.0301 30.3871C55.2785 30.3871 54.4287 29.8227 54.4287 28.655V25.1129H61.1366H61.1431ZM54.4352 22.1223C54.4352 20.9675 55.285 20.4096 57.0366 20.4096C58.7882 20.4096 59.638 20.9675 59.638 22.1223V24.315H54.4352V22.1223Z" fill="#F7F7F7"/>
<path d="M49.7514 15.4077V20.0462C49.1286 19.8191 48.2593 19.7088 47.1499 19.7088C44.3993 19.7088 42.998 20.5327 42.998 22.161V28.6159C42.998 30.2442 44.3928 31.0681 47.1499 31.0681C48.2139 31.0681 49.0897 30.9514 49.7514 30.7243V30.9903H51.1851V15.4077H49.7514ZM49.6735 28.6548C49.6735 29.8226 48.8496 30.387 47.1499 30.387C45.3465 30.387 44.4707 29.8226 44.4707 28.6548V22.1156C44.4707 20.9609 45.3465 20.403 47.1499 20.403C48.8496 20.403 49.6735 20.9609 49.6735 22.1156V28.6548Z" fill="#F7F7F7"/>
<path d="M79.8589 8.33667V30.9191H77.77V9.34869L79.8589 8.33667Z" fill="#F7F7F7"/>
<path d="M69.1355 8.20044C65.2691 8.20044 63.3164 9.36167 63.3164 11.6582V27.6495C63.3164 29.9589 65.2756 31.1331 69.1355 31.1331C73.0344 31.1331 75.0066 29.9589 75.0066 27.6495V11.6582C75.0066 9.36167 73.0344 8.20044 69.1355 8.20044ZM72.9241 27.7078C72.9241 29.414 71.6851 30.2444 69.1355 30.2444C66.586 30.2444 65.3469 29.414 65.3469 27.7078V11.5998C65.3469 9.93256 66.586 9.11515 69.1355 9.11515C71.6851 9.11515 72.9241 9.92607 72.9241 11.5998V27.7078Z" fill="#F7F7F7"/>
<path d="M114.41 14.7786V30.919H112.322V14.7786H114.41Z" fill="#F7F7F7"/>
<path d="M135.89 14.8629C132.03 14.8629 130.071 16.0371 130.071 18.3466V19.2484H132.101V18.2882C132.101 16.6015 133.34 15.7776 135.89 15.7776C138.439 15.7776 139.679 16.6015 139.679 18.2882V21.3049C138.816 20.9675 137.544 20.7988 135.89 20.7988C132.03 20.7988 130.071 21.9601 130.071 24.2566V27.643C130.071 29.9525 132.03 31.1267 135.89 31.1267C137.447 31.1267 138.699 30.9645 139.62 30.6401V31.0164H141.761C141.761 31.0164 141.761 27.8116 141.761 27.643V18.3401C141.761 16.0307 139.782 14.8564 135.883 14.8564L135.89 14.8629ZM139.62 28.4409C139.335 29.6346 138.076 30.2379 135.89 30.2379C134.365 30.2379 133.301 29.9849 132.737 29.4854C132.315 29.1156 132.101 28.5188 132.101 27.7014V24.1722C132.101 22.518 133.34 21.7136 135.89 21.7136C138.115 21.7136 139.374 22.2909 139.62 23.4327V28.4344V28.4409Z" fill="#F7F7F7"/>
<path d="M128.923 18.4308V20.2213H126.782V18.3465C126.782 17.6004 126.555 16.9971 126.114 16.543C125.673 16.0954 124.622 15.8618 122.993 15.8618C121.093 15.8618 119.873 16.3808 119.373 17.3929C119.373 17.4448 119.36 17.5161 119.347 17.6199C119.328 17.7302 119.321 17.9443 119.321 18.2557V30.9903H117.181V14.772H119.38V15.3948C119.827 15.2455 120.437 15.1288 121.242 15.0315C122.111 14.9277 122.948 14.8758 123.726 14.8758C125.731 14.8758 127.074 15.1677 127.82 15.7775C128.559 16.3743 128.936 17.2696 128.936 18.4243L128.923 18.4308Z" fill="#F7F7F7"/>
<path d="M109.954 22.5568V18.3465C109.954 16.037 107.975 14.8628 104.076 14.8628C100.216 14.8628 98.2571 16.037 98.2571 18.3465V27.6493C98.2571 29.9588 100.216 31.133 104.076 31.133C107.975 31.133 109.954 29.9588 109.954 27.6493V27.0784H107.865V27.7077C107.865 29.4139 106.626 30.2442 104.076 30.2442C101.527 30.2442 100.288 29.4139 100.288 27.7077V22.5568H109.954ZM100.288 18.2946C100.288 16.6079 101.527 15.784 104.076 15.784C106.626 15.784 107.865 16.6079 107.865 18.2946V21.4993H100.288V18.2946Z" fill="#F7F7F7"/>
<path d="M114.41 11.3921V12.482H112.322V11.3921H114.41Z" fill="#F7F7F7"/>
<path d="M97.5304 14.8369L92.5287 30.919H90.8809L85.8792 14.8369H87.9746L87.994 14.9083L91.6788 27.0071L95.435 14.8369H97.5304Z" fill="#F7F7F7"/>
<path d="M84.8153 11.3921V12.482H82.7329V11.3921H84.8153Z" fill="#F7F7F7"/>
<path d="M84.8153 14.7786V30.919H82.7329V14.7786H84.8153Z" fill="#F7F7F7"/>
<path d="M148.527 17.8211C148.527 17.4967 148.411 17.2567 148.184 17.101C147.956 16.9453 147.593 16.8674 147.107 16.8674H145.861V20.3187H146.328V18.7812H147.197L147.944 20.3187H148.475L147.697 18.7163C147.95 18.6839 148.151 18.5931 148.3 18.4244C148.45 18.2622 148.527 18.0546 148.527 17.8146V17.8211ZM147.827 18.3206C147.678 18.4179 147.405 18.4698 147.016 18.4698H146.328V17.1918H147.016C147.373 17.1918 147.632 17.2437 147.801 17.341C147.969 17.4383 148.054 17.594 148.054 17.8081C148.054 18.0546 147.982 18.2233 147.833 18.3206H147.827Z" fill="#F7F7F7"/>
<path d="M149.779 17.4967C149.63 17.1334 149.416 16.8155 149.137 16.5366C148.852 16.2511 148.527 16.0306 148.164 15.8814C147.801 15.7321 147.418 15.6543 147.009 15.6543C146.607 15.6543 146.224 15.7257 145.868 15.8749C145.511 16.0241 145.193 16.2382 144.92 16.5171C144.635 16.809 144.414 17.1334 144.265 17.5032C144.116 17.8665 144.038 18.2492 144.038 18.645C144.038 19.0472 144.116 19.4234 144.265 19.7802C144.414 20.137 144.635 20.4614 144.92 20.7404C145.206 21.0323 145.53 21.2464 145.887 21.4021C146.244 21.5513 146.62 21.6291 147.016 21.6291C147.405 21.6291 147.788 21.5513 148.151 21.3956C148.514 21.2399 148.845 21.0193 149.137 20.7339C149.423 20.4549 149.637 20.1435 149.779 19.7867C149.922 19.4299 150 19.0537 150 18.645C150 18.2427 149.929 17.86 149.779 17.4967ZM149.507 19.67C149.377 19.9878 149.183 20.2733 148.93 20.5198C148.67 20.7793 148.372 20.9739 148.041 21.1166C147.71 21.2529 147.366 21.3242 147.016 21.3242C146.659 21.3242 146.322 21.2529 145.997 21.1166C145.673 20.9804 145.381 20.7858 145.128 20.5263C144.875 20.2733 144.674 19.9813 144.538 19.657C144.401 19.3326 144.337 18.9953 144.337 18.6385C144.337 18.2882 144.408 17.9443 144.544 17.6135C144.68 17.2891 144.881 16.9907 145.141 16.7247C145.387 16.4782 145.673 16.2836 145.997 16.1538C146.322 16.0241 146.665 15.9527 147.022 15.9527C147.386 15.9527 147.729 16.0176 148.06 16.1538C148.385 16.2901 148.677 16.4847 148.936 16.7442C149.189 16.9972 149.377 17.2826 149.513 17.607C149.65 17.9313 149.714 18.2752 149.714 18.6385C149.714 19.0018 149.65 19.3456 149.513 19.6635L149.507 19.67Z" fill="#F7F7F7"/>
</g>
<defs>
<clipPath id="clip0_81_138">
<rect width="150" height="40.0665" fill="white"/>
</clipPath>
</defs>
</svg>
