<svg width="305" height="120" fill="none" xmlns="http://www.w3.org/2000/svg"><g clip-path="url(#clip0_428_2276)" fill="#1B1B1B"><path fill-rule="evenodd" clip-rule="evenodd" d="M122.996 38.021l17.961 31.405h-35.995l18.034-31.405zm-51 50.493h101.846L122.915 0 71.988 88.514h.008zM0 25.639v.392c0 4.285.155 6.854 1.787 10.828 1.558 3.893 3.575 6.625 6.3 9.348 4.12 4.13 9.017 6.543 14.85 7.328.392.081.776.081 1.241.155l18.116.156c3.035 0 5.361 1.17 6.838 3.663.392.548.62 1.088.857 1.791 1.322 4.752-1.632 9.349-6.144 10.052-1.167.237-11.971.081-14.15.081H3.035c-.465 0-1.477-.155-1.477.311v18.778H42.84c7.23 0 13.53-2.806 18.426-7.713 2.334-2.413 3.884-4.367 5.443-7.557 1.322-2.568 2.562-6.853 2.562-10.599 0-4.285-.31-7.09-1.787-10.91-1.012-2.494-2.252-4.677-3.884-6.624-2.955-3.663-7.157-7.172-12.127-8.807-2.717-.933-5.287-1.48-8.943-1.48H26.822c-2.954 0-5.361-1.481-6.764-3.739-1.086-1.79-1.396-3.663-.93-5.847.62-3.426 3.965-6.158 7.62-6.158H67.72V.155H25.427c-3.501 0-8.397 1.325-11.196 3.042-2.098 1.244-2.718 1.48-4.741 3.198C8.168 7.565 7.776 8.03 6.69 9.2a21.942 21.942 0 00-3.034 4.049c-.237.392-.392.703-.62 1.088C1.321 17.297 0 21.975 0 25.639zm179.514 62.875h69.352V69.737c0-.237-.081-.311-.31-.311h-49.989V.156h-19.046v88.358h-.007zM305 .155h-69.197v18.933h25.116v69.426h18.972V19.088H305V.155z"/><path d="M119.651 117.483c.93.704 1.632 1.244 2.407 1.792.156.081.466.236.392.466-.081.392-.465.155-.702.237-.391.081-.701-.156-1.011-.311-.547-.466-1.241-.859-1.788-1.325-.93-.859-2.023-.933-3.19-.933-.465.082-.62.237-.546.622 0 .392-.082.859 0 1.244 0 .466 0 .703-.621.703-.546 0-.701-.156-.701-.622v-7.091c0-.466.155-.621.701-.621 1.714 0 3.419-.082 5.133 0 1.713.081 2.407.777 2.407 2.494v.777c0 1.791-.465 2.339-2.488 2.568h.007zm-2.253-.858h.702c2.799 0 2.799-.081 2.718-2.724 0-.932-.466-1.325-1.322-1.325h-2.334c-1.295 0-1.942.649-1.942 1.947 0 1.401.726 2.102 2.178 2.102zm96.487-.851v-3.427c-.081-.548.155-.703.701-.703h6.765c.391 0 .775-.082.775.547 0 .63-.465.393-.775.393h-5.443c-.546 0-.701.081-.701.621-.054 1.352.593 2.028 1.942 2.028h3.19c.237 0 .547-.081.547.393.081.547-.31.466-.621.466h-4.431c-.465 0-.62.081-.62.548-.103 1.608.675 2.413 2.334 2.413h3.884c.392 0 .702-.082.702.466 0 .466-.31.466-.621.466h-6.993c-.465 0-.62-.155-.62-.622v-3.582l-.015-.007zm-153.239 0v-3.508c0-.467.155-.622.62-.622h6.92c.31 0 .62 0 .62.466 0 .548-.31.466-.62.466h-5.598c-.546 0-.701.156-.701.704 0 1.946-.081 1.946 1.942 1.946h2.954c.31 0 .857-.237.857.466-.082.622-.547.393-.857.393h-4.195c-.546 0-.701.155-.701.621-.054 1.56.696 2.339 2.252 2.339h3.966c.391 0 .701-.081.701.467 0 .547-.39.466-.701.466H61.34c-.62 0-.701-.237-.701-.703v-3.509l.007.008zm209.682 4.204h-2.097c-.391-.082-1.012.311-1.012-.548 0-.703.621-.392.931-.392 1.477-.082 2.954 0 4.357 0 1.167 0 1.632-.392 1.632-1.325 0-.933-.465-1.244-1.632-1.325-1.167 0-2.253.156-3.419-.081-1.167-.311-1.869-1.014-1.869-2.102-.081-1.244.621-2.184 1.787-2.413 1.943-.393 3.966-.082 5.99-.156.391 0 .465.237.465.548 0 .311-.236.392-.547.392h-4.431c-.391 0-.775 0-1.166.156-.621.311-.857.858-.857 1.48.081.622.391 1.014 1.012 1.169 1.167.237 2.333.082 3.5.082 1.869.081 2.718 1.243 2.334 2.886-.236 1.014-1.012 1.562-2.334 1.636h-2.644v-.007zm-259.598 0H8.013c-.392 0-.547-.082-.547-.466 0-.385.155-.467.547-.467h4.741c1.086 0 1.558-.466 1.558-1.325 0-.858-.465-1.243-1.632-1.324-1.085 0-2.252.155-3.42-.082-1.085-.311-1.712-.858-1.786-1.791-.082-1.399.391-2.339 1.558-2.65 2.023-.547 4.12-.155 6.218-.237.392 0 .31.311.31.548.082.466-.31.392-.546.392h-4.512c-.62 0-1.167.156-1.559.622-.701.933-.155 2.102 1.167 2.258 1.012.081 2.024 0 3.035 0 1.714.081 2.49.858 2.408 2.568-.081.932-.547 1.48-1.558 1.791-1.086.311-2.334.081-3.264.155v.008zm156.813-4.204v-3.508c0-.467.081-.622.62-.622.621 0 .621.237.621.622 0 2.412-.082 4.751 0 7.09 0 .466-.155.622-.621.622-.465 0-.62-.156-.62-.622v-3.582z"/></g><defs><clipPath id="clip0_428_2276"><path fill="#fff" d="M0 0h305v120H0z"/></clipPath></defs></svg>