<svg data-name="Layer 1" xmlns="http://www.w3.org/2000/svg" viewBox="0 0 413 162.13"><path d="M166.55 51.37l24.32 42.43h-48.74l24.42-42.43zm-69.06 68.22H235.4L166.44 0 97.48 119.59zM0 34.64v.53c0 5.79.21 9.26 2.42 14.63 2.11 5.26 4.84 8.95 8.53 12.63 5.58 5.58 12.21 8.84 20.11 9.9.53.11 1.05.11 1.68.21l24.53.21c4.11 0 7.26 1.58 9.26 4.95.53.74.84 1.47 1.16 2.42 1.79 6.42-2.21 12.63-8.32 13.58-1.58.32-16.21.11-19.16.11H4.11c-.63 0-2-.21-2 .42v25.37h55.9c9.79 0 18.32-3.79 24.95-10.42 3.16-3.26 5.26-5.9 7.37-10.21 1.79-3.47 3.47-9.26 3.47-14.32 0-5.79-.42-9.58-2.42-14.74-1.37-3.37-3.05-6.32-5.26-8.95-4-4.95-9.69-9.69-16.42-11.9-3.68-1.26-7.16-2-12.11-2H36.32c-4 0-7.26-2-9.16-5.05-1.47-2.42-1.89-4.95-1.26-7.9.84-4.63 5.37-8.32 10.32-8.32H91.7V.21H34.43C29.69.21 23.06 2 19.27 4.32c-2.84 1.68-3.68 2-6.42 4.32-1.79 1.58-2.32 2.21-3.79 3.79-1.58 1.68-2.95 3.47-4.11 5.47-.32.53-.53.95-.84 1.47C1.79 23.37 0 29.69 0 34.64zm243.08 84.95h93.91V94.22c0-.32-.11-.42-.42-.42h-67.69V.21h-25.79v119.38zM413 .21h-93.7v25.58h34.01v93.8H379v-93.8h34V.21z" fill-rule="evenodd" fill="#c89d46"/><path d="M162.02 158.73c1.26.95 2.21 1.68 3.26 2.42.21.11.63.32.53.63-.11.53-.63.21-.95.32-.53.11-.95-.21-1.37-.42-.74-.63-1.68-1.16-2.42-1.79-1.26-1.16-2.74-1.26-4.32-1.26-.63.11-.84.32-.74.84 0 .53-.11 1.16 0 1.68 0 .63 0 .95-.84.95-.74 0-.95-.21-.95-.84v-9.58c0-.63.21-.84.95-.84 2.32 0 4.63-.11 6.95 0s3.26 1.05 3.26 3.37v1.05c0 2.42-.63 3.16-3.37 3.47zm-3.05-1.16h.95c3.79 0 3.79-.11 3.68-3.68 0-1.26-.63-1.79-1.79-1.79h-3.16q-2.63 0-2.63 2.63 0 2.84 2.95 2.84zm130.65-1.15v-4.63c-.11-.74.21-.95.95-.95h9.16c.53 0 1.05-.11 1.05.74s-.63.53-1.05.53h-7.37c-.74 0-.95.11-.95.84q-.11 2.74 2.63 2.74h4.32c.32 0 .74-.11.74.53.11.74-.42.63-.84.63h-6c-.63 0-.84.11-.84.74q-.21 3.26 3.16 3.26h5.26c.53 0 .95-.11.95.63 0 .63-.42.63-.84.63h-9.47c-.63 0-.84-.21-.84-.84v-4.84zm-207.5 0v-4.74c0-.63.21-.84.84-.84h9.37c.42 0 .84 0 .84.63 0 .74-.42.63-.84.63h-7.58c-.74 0-.95.21-.95.95 0 2.63-.11 2.63 2.63 2.63h4c.42 0 1.16-.32 1.16.63-.11.84-.74.53-1.16.53h-5.68c-.74 0-.95.21-.95.84q-.11 3.16 3.05 3.16h5.37c.53 0 .95-.11.95.63s-.53.63-.95.63h-9.16c-.84 0-.95-.32-.95-.95v-4.74zm283.93 5.68h-2.84c-.53-.11-1.37.42-1.37-.74 0-.95.84-.53 1.26-.53 2-.11 4 0 5.9 0 1.58 0 2.21-.53 2.21-1.79s-.63-1.68-2.21-1.79c-1.58 0-3.05.21-4.63-.11-1.58-.42-2.53-1.37-2.53-2.84-.11-1.68.84-2.95 2.42-3.26 2.63-.53 5.37-.11 8.11-.21.53 0 .63.32.63.74s-.32.53-.74.53h-6c-.53 0-1.05 0-1.58.21-.84.42-1.16 1.16-1.16 2 .11.84.53 1.37 1.37 1.58 1.58.32 3.16.11 4.74.11 2.53.11 3.68 1.68 3.16 3.9-.32 1.37-1.37 2.11-3.16 2.21h-3.58zm-351.52 0h-3.68c-.53 0-.74-.11-.74-.63s.21-.63.74-.63h6.42c1.47 0 2.11-.63 2.11-1.79s-.63-1.68-2.21-1.79c-1.47 0-3.05.21-4.63-.11-1.47-.42-2.32-1.16-2.42-2.42-.11-1.89.53-3.16 2.11-3.58 2.74-.74 5.58-.21 8.42-.32.53 0 .42.42.42.74.11.63-.42.53-.74.53h-6.11c-.84 0-1.58.21-2.11.84-.95 1.26-.21 2.84 1.58 3.05 1.37.11 2.74 0 4.11 0 2.32.11 3.37 1.16 3.26 3.47-.11 1.26-.74 2-2.11 2.42-1.47.42-3.16.11-4.42.21zm212.34-5.68v-4.74c0-.63.11-.84.84-.84.84 0 .84.32.84.84 0 3.26-.11 6.42 0 9.58 0 .63-.21.84-.84.84s-.84-.21-.84-.84v-4.84z" fill="#c89d46"/></svg>