<svg width="413" height="96" viewBox="0 0 413 96" fill="none" xmlns="http://www.w3.org/2000/svg">
<g clip-path="url(#clip0_427_295)">
<path fill-rule="evenodd" clip-rule="evenodd" d="M387.62 33.9152V44.3108H405.7V51.6892H387.62V69.4633H378.85V32.6605L385.01 26.5267H407.91C400 10.7939 383.67 0 364.8 0C338.18 0 316.59 21.4882 316.59 48.005C316.59 74.5217 338.17 96.0099 364.8 96.0099C391.43 96.0099 413.01 74.5217 413.01 48.005C413.01 43.1059 412.27 38.3761 410.9 33.9152H387.64H387.62ZM373.84 50.5441V69.4633H365.07V51.6892H334.06V69.4633H325.29V26.5267H334.06V44.3008H357.03L366.12 26.5267H375.1L366.02 44.3008L373.85 50.5342L373.84 50.5441Z" fill="#1B1B1B"/>
<path d="M70.49 62.2441V33.9649H6.42L0 26.5864H73.1L79.26 32.7202V63.3892L73.1 69.523H30.71V44.3605H39.48V62.2441H70.49Z" fill="#1B1B1B"/>
<path d="M132.75 69.5231H120.25C114.09 63.3893 94.6704 51.6395 94.6704 51.6395V69.5231H85.9004V26.4769H128.39L134.55 32.6107V45.5057L128.39 51.6395H108.34L132.75 69.5231ZM125.78 33.8654H94.6704V44.3605H125.78V33.8654Z" fill="#1B1B1B"/>
<path d="M184.1 51.6394H150.48V62.1346H183.83L190.37 69.5131H147.87C141.71 63.3793 147.76 69.2641 141.71 63.3793V32.6007L147.87 26.4669H184.21C190.37 32.7999 184.21 26.4669 190.37 32.6007V45.3861L184.1 51.6295V51.6394ZM150.48 44.3605H181.59V33.8653H150.48V44.3605Z" fill="#1B1B1B"/>
<path d="M237.2 33.8654H206.09V62.1446H221.65L228.54 69.5231H203.48L197.32 63.3893V32.6107C203.48 26.4769 197.54 32.5809 203.48 26.4769H239.82L245.98 32.6107V69.5231H237.21V33.8654H237.2Z" fill="#1B1B1B"/>
<path d="M301.9 26.4769H285.82L280.49 29.6135L275.16 26.4769H259.08L252.92 32.6107V69.5231H261.69V33.8654H272.55L288.43 57.4447V33.8654H299.29V69.5231H308.06V32.6107L301.9 26.4769Z" fill="#1B1B1B"/>
<path d="M145.95 87.8448C146.74 88.4422 147.39 88.9301 148.04 89.428C148.2 89.5475 148.42 89.657 148.36 89.906C148.28 90.2545 147.98 90.0553 147.78 90.0952C147.44 90.1649 147.17 89.9856 146.91 89.7765C146.4 89.3782 145.84 89.0496 145.39 88.5916C144.58 87.7651 143.62 87.7153 142.59 87.7651C142.19 87.785 142.09 87.9244 142.12 88.2929C142.14 88.6812 142.12 89.0695 142.12 89.4579C142.14 89.8562 142.12 90.125 141.59 90.1151C141.12 90.1151 141.01 89.9458 141.02 89.4878C141.04 87.3369 141.04 85.1762 141.02 83.0253C141.02 82.5573 141.15 82.398 141.61 82.408C143.09 82.4379 144.57 82.3781 146.05 82.4279C147.54 82.4777 148.11 83.1448 148.12 84.6882C148.12 84.9272 148.12 85.1662 148.12 85.4052C148.12 87.098 147.71 87.5859 145.96 87.8348L145.95 87.8448ZM144.01 86.9984C144.21 86.9984 144.42 86.9984 144.62 86.9984C146.99 86.9984 147 86.9685 146.98 84.4891C146.98 83.6228 146.57 83.3042 145.82 83.2942C145.15 83.2842 144.49 83.2942 143.82 83.2942C142.687 83.2942 142.12 83.8817 142.12 85.0567C142.12 86.3511 142.753 86.9984 144.02 86.9984H144.01Z" fill="#1B1B1B"/>
<path d="M245.65 86.2218C245.65 85.1762 245.67 84.1307 245.65 83.0752C245.63 82.5574 245.81 82.408 246.3 82.418C248.24 82.4379 250.19 82.428 252.13 82.418C252.45 82.418 252.77 82.3682 252.76 82.896C252.75 83.4934 252.34 83.2743 252.08 83.2743C250.51 83.2943 248.95 83.2943 247.38 83.2743C246.94 83.2743 246.8 83.3739 246.79 83.8618C246.75 85.7338 246.73 85.7338 248.5 85.7338C249.4 85.7338 250.3 85.7338 251.2 85.7338C251.45 85.7338 251.71 85.6641 251.73 86.1023C251.75 86.6001 251.45 86.5205 251.17 86.5205C249.89 86.5205 248.62 86.5404 247.34 86.5205C246.94 86.5205 246.81 86.6201 246.79 87.0582C246.7 89.2289 246.69 89.2289 248.8 89.2289C249.93 89.2289 251.06 89.2289 252.19 89.2289C252.49 89.2289 252.75 89.209 252.75 89.667C252.75 90.135 252.49 90.1151 252.19 90.1151C250.19 90.1151 248.19 90.1052 246.19 90.1151C245.77 90.1151 245.64 89.9658 245.65 89.5476C245.67 88.4423 245.65 87.337 245.65 86.2218Z" fill="#1B1B1B"/>
<path d="M85.7803 86.2018C85.7803 85.1264 85.7903 84.051 85.7803 82.9756C85.7803 82.5474 85.9103 82.408 86.3303 82.418C88.3003 82.4379 90.2703 82.4279 92.2403 82.418C92.5503 82.418 92.8003 82.418 92.8103 82.8661C92.8203 83.3639 92.5203 83.2843 92.2403 83.2843C90.6503 83.2843 89.0503 83.3042 87.4603 83.2743C86.9603 83.2644 86.8403 83.4237 86.8403 83.9216C86.8303 85.7338 86.8103 85.7338 88.5203 85.7338C89.3603 85.7338 90.2003 85.7139 91.0403 85.7438C91.3203 85.7438 91.7903 85.5048 91.7703 86.162C91.7603 86.7694 91.3203 86.5005 91.0803 86.5105C89.8603 86.5404 88.6503 86.5404 87.4303 86.5105C86.9803 86.5005 86.8503 86.63 86.8403 87.1079C86.7903 89.2189 86.7703 89.2189 88.8103 89.2189C89.9403 89.2189 91.0703 89.2189 92.2003 89.2189C92.5403 89.2189 92.8303 89.1891 92.8103 89.7068C92.7903 90.2047 92.4703 90.0952 92.2103 90.1051C90.2703 90.1051 88.3303 90.0852 86.3903 90.1251C85.8503 90.1251 85.7803 89.916 85.7903 89.448C85.8203 88.3725 85.7903 87.2971 85.7903 86.2217L85.7803 86.2018Z" fill="#1B1B1B"/>
<path d="M303.67 90.1052C303.06 90.1052 302.45 90.145 301.84 90.0952C301.52 90.0653 300.95 90.4238 300.96 89.6471C300.98 88.9501 301.5 89.2488 301.8 89.2488C303.05 89.209 304.29 89.2488 305.54 89.2289C306.51 89.2289 306.91 88.8605 306.91 88.034C306.91 87.1876 306.55 86.8789 305.54 86.8491C304.56 86.8292 303.57 86.9287 302.59 86.7097C301.57 86.4806 301 85.8234 300.97 84.8078C300.94 83.6826 301.49 82.8063 302.49 82.5972C304.21 82.2388 305.96 82.4977 307.69 82.4379C308.01 82.428 308.05 82.647 308.06 82.9159C308.08 83.2644 307.89 83.3042 307.63 83.3042C306.35 83.3042 305.08 83.3042 303.8 83.3042C303.45 83.3042 303.11 83.3341 302.78 83.4834C302.22 83.7423 302.05 84.2402 302.06 84.7978C302.07 85.3555 302.35 85.7338 302.92 85.8732C303.93 86.1222 304.94 85.9429 305.95 85.9927C307.5 86.0624 308.27 87.0781 307.93 88.6315C307.73 89.5475 307.09 90.0454 305.92 90.1052C305.17 90.145 304.41 90.1052 303.66 90.1052H303.67Z" fill="#1B1B1B"/>
<path d="M33.2904 90.1051C32.4004 90.1051 31.6804 90.0952 30.9504 90.1051C30.6304 90.1051 30.4904 90.0255 30.4904 89.657C30.4904 89.2886 30.6204 89.2089 30.9504 89.2089C32.3104 89.2189 33.6804 89.2189 35.0404 89.2089C36.0004 89.2089 36.4204 88.8206 36.4204 88.0041C36.4204 87.1975 36.0004 86.859 35.0204 86.8291C34.0404 86.7992 33.0504 86.9187 32.0704 86.6897C31.0904 86.4607 30.5604 85.9329 30.5004 85.0567C30.4104 83.7622 30.8204 82.9059 31.8204 82.637C33.5804 82.169 35.4004 82.4976 37.1904 82.4279C37.5604 82.408 37.4604 82.7366 37.4804 82.9557C37.5204 83.344 37.2404 83.2843 37.0204 83.2843C35.7104 83.2843 34.4104 83.2843 33.1004 83.2843C32.5804 83.2843 32.1104 83.4137 31.8004 83.8618C31.1704 84.758 31.6404 85.8234 32.7804 85.9429C33.6404 86.0325 34.5204 85.9628 35.3904 85.9827C36.8804 86.0126 37.5604 86.7594 37.4804 88.2829C37.4404 89.1691 36.9904 89.6969 36.1704 89.9458C35.1704 90.2445 34.1504 90.0255 33.3104 90.1051H33.2904Z" fill="#1B1B1B"/>
<path d="M196.36 86.2516C196.36 85.1762 196.38 84.1008 196.36 83.0353C196.35 82.5872 196.46 82.418 196.93 82.418C197.41 82.418 197.42 82.6669 197.42 83.0353C197.42 85.2061 197.41 87.3868 197.42 89.5575C197.42 89.9757 197.32 90.1251 196.89 90.1151C196.47 90.1151 196.35 89.9857 196.36 89.5575C196.39 88.4522 196.36 87.3569 196.36 86.2516Z" fill="#1B1B1B"/>
</g>
<defs>
<clipPath id="clip0_427_295">
<rect width="413" height="96" fill="white"/>
</clipPath>
</defs>
</svg>
