<?xml version="1.0" encoding="UTF-8"?>
<svg id="Layer_1" data-name="Layer 1" xmlns="http://www.w3.org/2000/svg" viewBox="0 0 413 78.31">
  <defs>
    <style>
      .cls-1 {
        fill: #c89d46;
        fill-rule: evenodd;
      }
    </style>
  </defs>
  <path class="cls-1" d="m62.68,27.55l-9.72,41.19c-1.09,2.64-2.85,3.83-5.32,3.57-10.4,1.52-15.4.73-15-2.41l9.52-40.6c.31-5.4-.69-8.42-3.03-9.08-2.34-.63-4.91.76-7.64,4.22-2.27,4.39-6.32,19.6-12.16,45.62-.02,2.29-3.28,3.62-9.82,4.04-6.51.41-9.68-.71-9.51-3.4,1.05-6.96,4.91-22.66,11.51-47.07,1.25-4.15.02-6.33-3.7-6.54.94-3.47,4.19-5.17,9.75-5.06,8.53-.69,12.76,1.03,12.74,5.19,3.04-4,7.28-6.13,12.7-6.42,8.5-.3,14.17,1.42,17.07,5.18,3.04-4,7.55-6.15,13.54-6.45,15.35-.58,22.2,6.52,20.59,21.38l-7.52,33.15c1.11,1.94,2.64,2.35,4.55,1.29-.11,4.11-3.63,5.96-10.56,5.6-9.84,1.5-14.4-2.05-13.67-10.64l7.38-32.33c.33-5.4-1.23-8.12-4.64-8.17-3.4-.05-5.75,2.53-7.07,7.77h0Zm44.01.65c-4.57,0-6.93,1.69-7.09,5.05,2.88-.08,3.7,1.28,2.45,4.08-2.55,8.18-4.38,15.22-5.53,21.14-.81,7.28,2.67,11.04,10.41,11.23,5.53,0,10.3-1.54,14.3-4.58.43,2.68,2.9,3.95,7.39,3.84,6.51-.35,9.58-2.78,9.2-7.31-1.76.79-3.21.46-4.29-.97.23-4.03,2.44-13.82,6.62-29.35.27-2.05-.28-3.5-1.67-4.35l-7.52.2c-2.38.42-4.78,7.05-7.25,19.87l-3.64,14.51-5.38,2.28c-3.26.44-4.67-1.18-4.24-4.86l5.05-20.61c.92-7.23-2.03-10.61-8.82-10.18h0Zm57.32-1.96c4.25,1.05,6.04,3.56,5.35,7.57-5.54-1.24-8.99.73-10.32,5.9-.38,2.09,1.01,4.73,4.2,7.96,3.19,3.23,4.55,6.81,4.05,10.77-1.28,6.43-6.9,9.55-16.85,9.38-9.95-.51-13.72-3.8-11.37-9.86,2.24,2.11,4.87,3.21,7.95,3.27,3.06.04,5.17-1.39,6.33-4.3.49-2.61-.97-5.49-4.34-8.65-3.38-3.14-4.67-6.62-3.9-10.42.59-3.55,2.55-6.71,5.91-9.47,4-2.26,8.33-2.99,13-2.15h0Zm17.82-17.38c5.98-.44,9.06,1.47,9.2,5.71-1.07,4.78-4,6.88-8.81,6.27-3.33-.29-5.04-1.75-5.14-4.31-.11-3.13,1.48-5.68,4.76-7.67h0Zm-6.01,22.7l-6.04,26.12c-.86,6.96,2.42,10.11,9.85,9.42,5.05-.14,7.58-1.96,7.62-5.45-3.12,1.17-4.49.49-4.12-1.98l4.76-19.73c1.14-4.42,1.27-8.11.39-11.03-.88-2.93-4.01-4.36-9.42-4.29-3.74.31-5.96,1.46-6.61,3.43,2.45.39,3.65,1.55,3.58,3.51h0Zm42.19-8.46c7-.03,9.78,2.87,8.32,8.73-1.38-1.45-3.25-1.94-5.59-1.43-5.86,1.53-10.21,7.2-13.04,17.01-1.36,8.06.54,12.13,5.7,12.25,4.98-.06,7.93-1.14,8.88-3.24,1.22,5.84-2.87,9.01-12.32,9.51-11.52.67-17.3-3.13-17.4-11.37-.47-7.09,1.73-14.07,6.62-20.9,4.9-6.85,11.17-10.37,18.82-10.58Z"/>
  <path class="cls-1" d="m274.14,53.8c-5.95,6.41-12.65,9.65-20.13,9.68-12.53-.23-18.48-5.76-17.84-16.49.64-8.15,3.1-18.54,7.37-31.22,1.84-4.15.64-6.17-3.63-6.04.24-4.98,3.73-7.46,10.48-7.47,10.04-.64,14.41,4.37,13.04,15.05l-7.43,31.3c-.64,5.41.86,7.27,4.56,5.61,4.79-.2,9.85-7.97,15.21-23.29,5.36-15.32,5.66-22.89.87-22.74.21-4.98,3.7-7.46,10.46-7.47,10.07-.64,14.41,4.37,13.07,15.05l-7.45,31.3c-.64,5.41.89,7.27,4.59,5.61,4.23-.18,8.98-7.41,14.24-21.68,5.26-14.28,4.89-21.16-1.14-20.62,1.11-7.58,4.48-11.01,10.14-10.3,5.67.74,8.27,4.4,7.77,11-1.87,14.14-6.28,26.12-13.23,35.98-6.98,9.86-15.09,14.83-24.35,14.88-8.74-.19-14.26-2.89-16.6-8.15h0Zm80.39-36.24c-7.68.43-14.26,4.18-19.74,11.24-5.48,7.06-7.95,13.82-7.47,20.29.83,7.3,4.53,10.85,11.12,10.65,4.58.22,8.78-.89,12.62-3.34-.07,2.4,3.04,3.27,9.35,2.65,3.94-.09,5.95-1.34,6.03-3.74-2.04.75-3.01.14-2.96-1.8l6.41-28.08c-1.38-5.58-6.49-8.2-15.37-7.87h0Zm3.33,5.56l.49-.02.59.47-6.52,22.7c-1.5,5.63-4.5,7.45-9,5.47-1.91-4.26-.8-10.15,3.32-17.66,4.14-7.49,7.84-11.16,11.13-10.95h0Zm34.61,32.54c-3.48,1.66-7.42,2.5-11.84,2.49-7.01-.22-10.3-3.99-9.87-11.25.79-5.9,2.25-12.92,4.42-21.09,1.24-2.8.42-4.36-2.46-4.65.33-2.92,2.87-4.42,7.66-4.51,6.43-.42,9.2,2.97,8.27,10.2l-4.5,20.58c-.43,3.68.53,5.47,2.9,5.39,2.37-.08,4.62-1.02,6.71-2.81,4.15-22.1,7.6-33.54,10.34-34.35l6.96-.18c1.76.47,2.31,1.92,1.67,4.34-1.5,8.31-3.64,17.79-6.44,28.45-1.59,8.03-4.67,14.7-9.26,20.01-4.59,5.32-11.13,8.6-19.63,9.84-7.36.82-11.11-1.27-11.2-6.29.24-4.65,1.85-7.74,4.8-9.26,2.97-1.52,5.79-.96,8.48,1.68-2.27.32-3.38,2.2-3.31,5.67.68,2.67,2.68,3.28,6.06,1.84,4.02-2.3,7.43-7.67,10.21-16.12Z"/>
</svg>