<svg width="413" height="79" viewBox="0 0 413 79" fill="none" xmlns="http://www.w3.org/2000/svg">
<g clip-path="url(#clip0_428_577)">
<path fill-rule="evenodd" clip-rule="evenodd" d="M62.6797 27.55L52.9597 68.74C51.8697 71.38 50.1097 72.57 47.6397 72.31C37.2397 73.83 32.2397 73.04 32.6397 69.9L42.1597 29.3C42.4697 23.9 41.4697 20.88 39.1297 20.22C36.7897 19.59 34.2197 20.98 31.4897 24.44C29.2197 28.83 25.1697 44.04 19.3297 70.06C19.3097 72.35 16.0497 73.68 9.50965 74.1C2.99965 74.51 -0.170346 73.39 -0.000346417 70.7C1.04965 63.74 4.90965 48.04 11.5097 23.63C12.7597 19.48 11.5297 17.3 7.80965 17.09C8.74965 13.62 11.9997 11.92 17.5597 12.03C26.0897 11.34 30.3197 13.06 30.2997 17.22C33.3397 13.22 37.5797 11.09 42.9997 10.8C51.4997 10.5 57.1697 12.22 60.0697 15.98C63.1097 11.98 67.6197 9.83002 73.6097 9.53002C88.9597 8.95002 95.8097 16.05 94.1997 30.91L86.6797 64.06C87.7897 66 89.3197 66.41 91.2297 65.35C91.1197 69.46 87.5997 71.31 80.6697 70.95C70.8297 72.45 66.2697 68.9 66.9997 60.31L74.3797 27.98C74.7097 22.58 73.1497 19.86 69.7397 19.81C66.3397 19.76 63.9897 22.34 62.6697 27.58L62.6797 27.55ZM106.69 28.2C102.12 28.2 99.7597 29.89 99.5997 33.25C102.48 33.17 103.3 34.53 102.05 37.33C99.4997 45.51 97.6697 52.55 96.5197 58.47C95.7097 65.75 99.1897 69.51 106.93 69.7C112.46 69.7 117.23 68.16 121.23 65.12C121.66 67.8 124.13 69.07 128.62 68.96C135.13 68.61 138.2 66.18 137.82 61.65C136.06 62.44 134.61 62.11 133.53 60.68C133.76 56.65 135.97 46.86 140.15 31.33C140.42 29.28 139.87 27.83 138.48 26.98L130.96 27.18C128.58 27.6 126.18 34.23 123.71 47.05L120.07 61.56L114.69 63.84C111.43 64.28 110.02 62.66 110.45 58.98L115.5 38.37C116.42 31.14 113.47 27.76 106.68 28.19L106.69 28.2ZM164.01 26.24C168.26 27.29 170.05 29.8 169.36 33.81C163.82 32.57 160.37 34.54 159.04 39.71C158.66 41.8 160.05 44.44 163.24 47.67C166.43 50.9 167.79 54.48 167.29 58.44C166.01 64.87 160.39 67.99 150.44 67.82C140.49 67.31 136.72 64.02 139.07 57.96C141.31 60.07 143.94 61.17 147.02 61.23C150.08 61.27 152.19 59.84 153.35 56.93C153.84 54.32 152.38 51.44 149.01 48.28C145.63 45.14 144.34 41.66 145.11 37.86C145.7 34.31 147.66 31.15 151.02 28.39C155.02 26.13 159.35 25.4 164.02 26.24H164.01ZM181.83 8.86002C187.81 8.42002 190.89 10.33 191.03 14.57C189.96 19.35 187.03 21.45 182.22 20.84C178.89 20.55 177.18 19.09 177.08 16.53C176.97 13.4 178.56 10.85 181.84 8.86002H181.83ZM175.82 31.56L169.78 57.68C168.92 64.64 172.2 67.79 179.63 67.1C184.68 66.96 187.21 65.14 187.25 61.65C184.13 62.82 182.76 62.14 183.13 59.67L187.89 39.94C189.03 35.52 189.16 31.83 188.28 28.91C187.4 25.98 184.27 24.55 178.86 24.62C175.12 24.93 172.9 26.08 172.25 28.05C174.7 28.44 175.9 29.6 175.83 31.56H175.82ZM218.01 23.1C225.01 23.07 227.79 25.97 226.33 31.83C224.95 30.38 223.08 29.89 220.74 30.4C214.88 31.93 210.53 37.6 207.7 47.41C206.34 55.47 208.24 59.54 213.4 59.66C218.38 59.6 221.33 58.52 222.28 56.42C223.5 62.26 219.41 65.43 209.96 65.93C198.44 66.6 192.66 62.8 192.56 54.56C192.09 47.47 194.29 40.49 199.18 33.66C204.08 26.81 210.35 23.29 218 23.08L218.01 23.1Z" fill="#1B1B1B"/>
<path fill-rule="evenodd" clip-rule="evenodd" d="M274.14 53.8C268.19 60.21 261.49 63.45 254.01 63.48C241.48 63.25 235.53 57.72 236.17 46.99C236.81 38.84 239.27 28.45 243.54 15.77C245.38 11.62 244.18 9.59996 239.91 9.72996C240.15 4.74996 243.64 2.26996 250.39 2.25996C260.43 1.61996 264.8 6.62996 263.43 17.31L256 48.61C255.36 54.02 256.86 55.88 260.56 54.22C265.35 54.02 270.41 46.25 275.77 30.93C281.13 15.61 281.43 8.03996 276.64 8.18996C276.85 3.20996 280.34 0.729964 287.1 0.719964C297.17 0.0799637 301.51 5.08996 300.17 15.77L292.72 47.07C292.08 52.48 293.61 54.34 297.31 52.68C301.54 52.5 306.29 45.27 311.55 31C316.81 16.72 316.44 9.83996 310.41 10.38C311.52 2.79996 314.89 -0.630036 320.55 0.0799636C326.22 0.819964 328.82 4.47996 328.32 11.08C326.45 25.22 322.04 37.2 315.09 47.06C308.11 56.92 300 61.89 290.74 61.94C282 61.75 276.48 59.05 274.14 53.79V53.8ZM354.53 17.56C346.85 17.99 340.27 21.74 334.79 28.8C329.31 35.86 326.84 42.62 327.32 49.09C328.15 56.39 331.85 59.94 338.44 59.74C343.02 59.96 347.22 58.85 351.06 56.4C350.99 58.8 354.1 59.67 360.41 59.05C364.35 58.96 366.36 57.71 366.44 55.31C364.4 56.06 363.43 55.45 363.48 53.51L369.89 25.43C368.51 19.85 363.4 17.23 354.52 17.56H354.53ZM357.86 23.12L358.35 23.1L358.94 23.57L352.42 46.27C350.92 51.9 347.92 53.72 343.42 51.74C341.51 47.48 342.62 41.59 346.74 34.08C350.88 26.59 354.58 22.92 357.87 23.13L357.86 23.12ZM392.47 55.66C388.99 57.32 385.05 58.16 380.63 58.15C373.62 57.93 370.33 54.16 370.76 46.9C371.55 41 373.01 33.98 375.18 25.81C376.42 23.01 375.6 21.45 372.72 21.16C373.05 18.24 375.59 16.74 380.38 16.65C386.81 16.23 389.58 19.62 388.65 26.85L384.15 47.43C383.72 51.11 384.68 52.9 387.05 52.82C389.42 52.74 391.67 51.8 393.76 50.01C397.91 27.91 401.36 16.47 404.1 15.66L411.06 15.48C412.82 15.95 413.37 17.4 412.73 19.82C411.23 28.13 409.09 37.61 406.29 48.27C404.7 56.3 401.62 62.97 397.03 68.28C392.44 73.6 385.9 76.88 377.4 78.12C370.04 78.94 366.29 76.85 366.2 71.83C366.44 67.18 368.05 64.09 371 62.57C373.97 61.05 376.79 61.61 379.48 64.25C377.21 64.57 376.1 66.45 376.17 69.92C376.85 72.59 378.85 73.2 382.23 71.76C386.25 69.46 389.66 64.09 392.44 55.64L392.47 55.66Z" fill="#1B1B1B"/>
</g>
<defs>
<clipPath id="clip0_428_577">
<rect width="413" height="78.31" fill="white"/>
</clipPath>
</defs>
</svg>
