<?xml version="1.0" encoding="UTF-8"?>
<svg id="Layer_1" data-name="Layer 1" xmlns="http://www.w3.org/2000/svg" viewBox="0 0 413 85.72">
  <defs>
    <style>
      .cls-1 {
        fill: #c89d46;
      }
    </style>
  </defs>
  <path class="cls-1" d="m94.5,48.15V10.08H8.61L0,.14h98l8.26,8.26v41.29l-8.26,8.26h-56.83V24.08h11.76v24.08h41.57Z"/>
  <path class="cls-1" d="m177.97,57.95h-16.76c-8.26-8.26-34.29-24.08-34.29-24.08h0v24.08h-11.76V0h56.97l8.26,8.26v17.36l-8.26,8.26h-26.88l32.73,24.08Zm-9.35-48.01h-41.71v14.14h41.71v-14.14Z"/>
  <path class="cls-1" d="m246.81,33.87h-45.07v14.14h44.71l8.76,9.94h-56.97c-8.26-8.26-.14-.33-8.26-8.26V8.26L198.24,0h48.71C255.22,8.52,246.96,0,255.22,8.26v17.22l-8.4,8.4Zm-45.07-9.8h41.71v-14.14h-41.71v14.14Z"/>
  <path class="cls-1" d="m318.01,9.94h-41.71v38.07h20.86l9.24,9.94h-33.6l-8.26-8.26V8.26C272.79,0,264.83,8.22,272.79,0h48.71l8.26,8.26v49.69h-11.76V9.94Z"/>
  <path class="cls-1" d="m404.74,0h-21.55l-7.15,4.22-7.15-4.22h-21.56l-8.26,8.26v49.69h11.76V9.94h14.55l21.29,31.74V9.94h14.56v48.01h11.75V8.26l-8.26-8.26Z"/>
  <g>
    <path class="cls-1" d="m195.67,82.62c1.05.8,1.93,1.46,2.8,2.13.21.16.51.31.43.65-.11.48-.51.2-.78.26-.46.1-.81-.15-1.16-.42-.68-.54-1.44-.98-2.04-1.6-1.08-1.11-2.37-1.18-3.76-1.12-.53.02-.66.21-.63.71.03.52-.01,1.05.01,1.57.02.54-.01.9-.72.89-.63-.01-.78-.23-.77-.84.03-2.9.03-5.8,0-8.7,0-.63.18-.84.79-.83,1.98.03,3.97-.04,5.95.03,2,.07,2.77.97,2.78,3.04,0,.32,0,.64,0,.97,0,2.28-.55,2.93-2.9,3.27Zm-2.59-1.14c.27,0,.54,0,.82,0,3.18,0,3.19-.04,3.16-3.38-.01-1.17-.55-1.59-1.56-1.61-.89-.02-1.79,0-2.68,0q-2.29,0-2.29,2.37,0,2.62,2.55,2.62Z"/>
    <path class="cls-1" d="m329.33,80.43c0-1.41.03-2.82-.01-4.23-.02-.7.22-.9.87-.89,2.6.03,5.21.01,7.81.01.43,0,.86-.07.85.64-.01.81-.57.51-.91.51-2.1.03-4.2.03-6.3,0-.59,0-.78.14-.8.79-.05,2.52-.08,2.52,2.29,2.52,1.21,0,2.41,0,3.62,0,.34,0,.69-.09.71.5.03.67-.38.56-.75.56-1.71,0-3.42.02-5.13-.01-.54,0-.71.13-.74.73-.12,2.92-.14,2.92,2.7,2.92,1.52,0,3.03,0,4.55,0,.41,0,.76-.03.76.6,0,.63-.35.6-.75.6-2.68,0-5.37-.02-8.05,0-.57,0-.74-.2-.73-.77.03-1.49,0-2.98,0-4.47Z"/>
    <path class="cls-1" d="m115.01,80.41c0-1.45.02-2.9,0-4.35-.01-.58.18-.76.74-.75,2.64.03,5.28.01,7.93,0,.41,0,.75,0,.76.61.02.67-.39.56-.76.56-2.14,0-4.27.03-6.41-.01-.67-.01-.83.2-.83.87-.02,2.44-.04,2.44,2.25,2.44,1.13,0,2.25-.02,3.38.01.38.01,1-.32.98.56-.02.82-.6.46-.93.47-1.63.04-3.26.04-4.89,0-.6-.02-.77.16-.79.8-.06,2.85-.09,2.85,2.65,2.85,1.52,0,3.03,0,4.55,0,.45,0,.84-.04.81.66-.03.67-.45.53-.81.53-2.6,0-5.21-.02-7.81.02-.72.01-.82-.29-.81-.92.03-1.45.01-2.9.01-4.35Z"/>
    <path class="cls-1" d="m407.11,85.66c-.82,0-1.64.05-2.45-.02-.43-.04-1.2.44-1.17-.61.02-.94.72-.53,1.12-.54,1.67-.05,3.34-.01,5.01-.02,1.3,0,1.83-.49,1.83-1.62,0-1.14-.49-1.56-1.84-1.59-1.32-.03-2.64.11-3.95-.18-1.37-.3-2.14-1.19-2.18-2.57-.04-1.51.7-2.7,2.04-2.97,2.3-.48,4.65-.13,6.97-.21.43-.02.48.28.5.64.03.47-.22.52-.57.52-1.71,0-3.42,0-5.13,0-.47,0-.93.04-1.36.24-.75.35-.98,1.02-.96,1.77.02.76.39,1.25,1.15,1.45,1.35.34,2.71.09,4.06.16,2.07.1,3.11,1.46,2.65,3.55-.27,1.23-1.13,1.9-2.7,1.99-1.01.05-2.02.01-3.03.01h0Z"/>
    <path class="cls-1" d="m44.63,85.66c-1.19,0-2.16-.02-3.14,0-.43.01-.62-.1-.62-.6,0-.49.18-.61.62-.6,1.83.02,3.66.02,5.48,0,1.29,0,1.86-.52,1.85-1.62,0-1.09-.56-1.55-1.87-1.58-1.32-.03-2.64.12-3.95-.19-1.31-.3-2.02-1.02-2.11-2.2-.12-1.74.42-2.9,1.76-3.26,2.37-.63,4.8-.18,7.19-.28.49-.02.36.41.38.71.05.53-.32.44-.62.44-1.75,0-3.5,0-5.25,0-.69,0-1.33.17-1.75.77-.85,1.21-.21,2.64,1.32,2.8,1.15.12,2.33.03,3.5.05,2,.04,2.91,1.05,2.8,3.1-.06,1.19-.66,1.91-1.76,2.24-1.34.4-2.71.1-3.84.21Z"/>
    <path class="cls-1" d="m263.25,80.47c0-1.44.02-2.89-.01-4.33-.01-.6.13-.83.77-.83.65,0,.65.34.65.83-.01,2.93-.02,5.86,0,8.79,0,.56-.14.76-.71.76-.56,0-.73-.17-.72-.75.03-1.48.01-2.97.01-4.45Z"/>
  </g>
</svg>