<svg width="413" height="86" viewBox="0 0 413 86" fill="none" xmlns="http://www.w3.org/2000/svg">
<g clip-path="url(#clip0_417_255)">
<path d="M94.5 48.15V10.08H8.61L0 0.140015H98L106.26 8.40001V49.69L98 57.95H41.17V24.08H52.93V48.16H94.5V48.15Z" fill="#1B1B1B"/>
<path d="M177.97 57.95H161.21C152.95 49.69 126.92 33.87 126.92 33.87V57.95H115.16V0H172.13L180.39 8.26V25.62L172.13 33.88H145.25L177.98 57.96L177.97 57.95ZM168.62 9.94H126.91V24.08H168.62V9.94Z" fill="#1B1B1B"/>
<path d="M246.81 33.87H201.74V48.01H246.45L255.21 57.95H198.24C189.98 49.69 198.1 57.62 189.98 49.69V8.26L198.24 0H246.95C255.22 8.52 246.96 0 255.22 8.26V25.48L246.82 33.88L246.81 33.87ZM201.74 24.07H243.45V9.93H201.74V24.07Z" fill="#1B1B1B"/>
<path d="M318.01 9.94H276.3V48.01H297.16L306.4 57.95H272.8L264.54 49.69V8.26C272.79 0 264.83 8.22 272.79 0H321.5L329.76 8.26V57.95H318V9.94H318.01Z" fill="#1B1B1B"/>
<path d="M404.74 0H383.19L376.04 4.22L368.89 0H347.33L339.07 8.26V57.95H350.83V9.94H365.38L386.67 41.68V9.94H401.23V57.95H412.98V8.26L404.72 0H404.74Z" fill="#1B1B1B"/>
<path d="M195.67 82.62C196.72 83.42 197.6 84.08 198.47 84.75C198.68 84.91 198.98 85.06 198.9 85.4C198.79 85.88 198.39 85.6 198.12 85.66C197.66 85.76 197.31 85.51 196.96 85.24C196.28 84.7 195.52 84.26 194.92 83.64C193.84 82.53 192.55 82.46 191.16 82.52C190.63 82.54 190.5 82.73 190.53 83.23C190.56 83.75 190.52 84.28 190.54 84.8C190.56 85.34 190.53 85.7 189.82 85.69C189.19 85.68 189.04 85.46 189.05 84.85C189.08 81.95 189.08 79.05 189.05 76.15C189.05 75.52 189.23 75.31 189.84 75.32C191.82 75.35 193.81 75.28 195.79 75.35C197.79 75.42 198.56 76.32 198.57 78.39C198.57 78.71 198.57 79.03 198.57 79.36C198.57 81.64 198.02 82.29 195.67 82.63V82.62ZM193.08 81.48C193.35 81.48 193.62 81.48 193.9 81.48C197.08 81.48 197.09 81.44 197.06 78.1C197.05 76.93 196.51 76.51 195.5 76.49C194.61 76.47 193.71 76.49 192.82 76.49C191.294 76.49 190.53 77.28 190.53 78.86C190.53 80.6067 191.38 81.48 193.08 81.48Z" fill="#1B1B1B"/>
<path d="M329.33 80.4299C329.33 79.0199 329.36 77.6099 329.32 76.1999C329.3 75.4999 329.54 75.2999 330.19 75.3099C332.79 75.3399 335.4 75.3199 338 75.3199C338.43 75.3199 338.86 75.2499 338.85 75.9599C338.84 76.7699 338.28 76.4699 337.94 76.4699C335.84 76.4999 333.74 76.4999 331.64 76.4699C331.05 76.4699 330.86 76.6099 330.84 77.2599C330.79 79.7799 330.76 79.7799 333.13 79.7799C334.34 79.7799 335.54 79.7799 336.75 79.7799C337.09 79.7799 337.44 79.6899 337.46 80.2799C337.49 80.9499 337.08 80.8399 336.71 80.8399C335 80.8399 333.29 80.8599 331.58 80.8299C331.04 80.8299 330.87 80.9599 330.84 81.5599C330.72 84.4799 330.7 84.4799 333.54 84.4799C335.06 84.4799 336.57 84.4799 338.09 84.4799C338.5 84.4799 338.85 84.4499 338.85 85.0799C338.85 85.7099 338.5 85.6799 338.1 85.6799C335.42 85.6799 332.73 85.6599 330.05 85.6799C329.48 85.6799 329.31 85.4799 329.32 84.9099C329.35 83.4199 329.32 81.9299 329.32 80.4399L329.33 80.4299Z" fill="#1B1B1B"/>
<path d="M115.01 80.41C115.01 78.96 115.03 77.51 115.01 76.06C115 75.48 115.19 75.3 115.75 75.31C118.39 75.34 121.03 75.32 123.68 75.31C124.09 75.31 124.43 75.31 124.44 75.92C124.46 76.59 124.05 76.48 123.68 76.48C121.54 76.48 119.41 76.51 117.27 76.47C116.6 76.46 116.44 76.67 116.44 77.34C116.42 79.78 116.4 79.78 118.69 79.78C119.82 79.78 120.94 79.76 122.07 79.79C122.45 79.8 123.07 79.47 123.05 80.35C123.03 81.17 122.45 80.81 122.12 80.82C120.49 80.86 118.86 80.86 117.23 80.82C116.63 80.8 116.46 80.98 116.44 81.62C116.38 84.47 116.35 84.47 119.09 84.47C120.61 84.47 122.12 84.47 123.64 84.47C124.09 84.47 124.48 84.43 124.45 85.13C124.42 85.8 124 85.66 123.64 85.66C121.04 85.66 118.43 85.64 115.83 85.68C115.11 85.69 115.01 85.39 115.02 84.76C115.05 83.31 115.03 81.86 115.03 80.41H115.01Z" fill="#1B1B1B"/>
<path d="M407.11 85.66C406.29 85.66 405.47 85.71 404.66 85.64C404.23 85.6 403.46 86.08 403.49 85.03C403.51 84.09 404.21 84.5 404.61 84.49C406.28 84.44 407.95 84.48 409.62 84.47C410.92 84.47 411.45 83.98 411.45 82.85C411.45 81.71 410.96 81.29 409.61 81.26C408.29 81.23 406.97 81.37 405.66 81.08C404.29 80.78 403.52 79.89 403.48 78.51C403.44 77 404.18 75.81 405.52 75.54C407.82 75.06 410.17 75.41 412.49 75.33C412.92 75.31 412.97 75.61 412.99 75.97C413.02 76.44 412.77 76.49 412.42 76.49C410.71 76.49 409 76.49 407.29 76.49C406.82 76.49 406.36 76.53 405.93 76.73C405.18 77.08 404.95 77.75 404.97 78.5C404.99 79.26 405.36 79.75 406.12 79.95C407.47 80.29 408.83 80.04 410.18 80.11C412.25 80.21 413.29 81.57 412.83 83.66C412.56 84.89 411.7 85.56 410.13 85.65C409.12 85.7 408.11 85.66 407.1 85.66H407.11Z" fill="#1B1B1B"/>
<path d="M44.6301 85.66C43.4401 85.66 42.4701 85.64 41.4901 85.66C41.0601 85.67 40.8701 85.56 40.8701 85.06C40.8701 84.57 41.0501 84.45 41.4901 84.46C43.3201 84.48 45.1501 84.48 46.9701 84.46C48.2601 84.46 48.8301 83.94 48.8201 82.84C48.8201 81.75 48.2601 81.29 46.9501 81.26C45.6301 81.23 44.3101 81.38 43.0001 81.07C41.6901 80.77 40.9801 80.05 40.8901 78.87C40.7701 77.13 41.3101 75.97 42.6501 75.61C45.0201 74.98 47.4501 75.43 49.8401 75.33C50.3301 75.31 50.2001 75.74 50.2201 76.04C50.2701 76.57 49.9001 76.48 49.6001 76.48C47.8501 76.48 46.1001 76.48 44.3501 76.48C43.6601 76.48 43.0201 76.65 42.6001 77.25C41.7501 78.46 42.3901 79.89 43.9201 80.05C45.0701 80.17 46.2501 80.08 47.4201 80.1C49.4201 80.14 50.3301 81.15 50.2201 83.2C50.1601 84.39 49.5601 85.11 48.4601 85.44C47.1201 85.84 45.7501 85.54 44.6201 85.65L44.6301 85.66Z" fill="#1B1B1B"/>
<path d="M263.25 80.4699C263.25 79.0299 263.27 77.5799 263.24 76.1399C263.23 75.5399 263.37 75.3099 264.01 75.3099C264.66 75.3099 264.66 75.6499 264.66 76.1399C264.65 79.0699 264.64 81.9999 264.66 84.9299C264.66 85.4899 264.52 85.6899 263.95 85.6899C263.39 85.6899 263.22 85.5199 263.23 84.9399C263.26 83.4599 263.24 81.9699 263.24 80.4899L263.25 80.4699Z" fill="#1B1B1B"/>
</g>
<defs>
<clipPath id="clip0_417_255">
<rect width="413" height="85.72" fill="white"/>
</clipPath>
</defs>
</svg>
