<svg data-name="Layer 1" xmlns="http://www.w3.org/2000/svg" viewBox="0 0 413 162.16"><path d="M348.38 118.26c.9.04 1.8.07 2.71.07 9.71 0 18.26-3.35 25.85-9.38 5.14-4.06 11.58-10.35 11.58-17.45 0-.82-.17-1.5-.79-2.02-.88-.72-2.02-.9-3.12-.9-6.58 0-14.12 5.3-18.99 9.28-7 5.73-12.7 12.63-17.24 20.4zm-16.41 2.84c.7-2.24 1.57-4.43 2.58-6.55 3.28-6.9 7.97-13 13.38-18.37 5.85-5.81 12.4-11.07 19.66-15.03 5.69-3.09 12.19-5.54 18.75-5.54 4.32 0 8.75.93 12.13 3.8 3.25 2.81 4.63 6.65 4.63 10.9 0 12.15-6.95 21.48-16.24 28.62-11.21 8.58-24.28 12.22-38.33 12.22-1.21 0-2.44.02-3.65-.04h-.04c-.05.26-.1.52-.13.78-.13.9-.19 1.82-.19 2.73 0 3.47.56 7.58 2.99 10.27 2.23 2.5 5.55 3.19 8.77 3.19 5.86 0 11.94-2.47 17.02-5.22 4.54-2.45 9.07-5.68 13.25-8.7 7.04-5.08 13.92-10.45 20.72-15.85a3.527 3.527 0 013.75-.42c1.23.6 2 1.82 2 3.19v6.54c0 1.09-.48 2.09-1.34 2.77-6.82 5.43-13.74 10.81-20.84 15.86-4.56 3.25-9.45 6.61-14.41 9.22-6.55 3.44-13.88 6-21.36 6-7.05 0-13.7-1.94-18.55-7.25-4.48-4.86-6.2-11.23-6.52-17.67-.21.1-.42.19-.64.28-3.97 1.71-8.23 2.9-12.58 2.9-3.19 0-6.26-.65-9.18-1.96-1.9-.87-3.65-1.99-5.23-3.34-5.49 7.22-11.9 14-19.36 19.18-6.48 4.5-13.95 7.85-21.97 7.85-4.23 0-8.59-.92-11.79-3.86-3.2-2.95-4.31-7.05-4.31-11.28 0-3 .69-6.12 1.58-8.96.78-2.59 1.8-5.08 3.02-7.47-.92.65-1.86 1.27-2.81 1.86l-.59.45c-7.14 5.53-38.03 29.93-47.04 29.93-1.94 0-3.57-.94-4.88-2.36-1.33-1.5-1.96-3.38-1.96-5.37 0-1.37.48-2.96.89-4.23.18-.58.37-1.16.57-1.73-1.87 2.05-3.83 3.98-5.87 5.69-4.99 4.19-10.91 7.34-17.57 7.34s-11.64-2.8-15.46-7.93c-4.25-5.66-5.71-12.63-5.71-19.59 0-5.73 1.09-11.29 3.33-16.57 2.38-5.61 5.9-10.67 9.95-15.22 7.46-8.15 16.33-14.59 26.31-19.34 9.31-4.41 19.31-7.23 29.67-7.23 3.62 0 7.28.31 10.78 1.22 3.13.78 6.08 2.07 8.85 3.72 1.13.68 1.79 1.92 1.72 3.23l-.33 6.31a3.544 3.544 0 01-1.9 2.96c-1.12.59-2.45.54-3.52-.13-2.21-1.37-4.57-2.54-7.06-3.3-2.85-.87-5.78-1.28-8.77-1.28-8.42 0-16.6 2.44-24.16 5.99-7.8 3.67-14.98 8.6-20.63 15.16-3.15 3.64-5.82 7.69-7.68 12.15-1.65 3.87-2.65 7.92-2.65 12.14 0 3.49.56 7.39 2.64 10.29 1.6 2.18 3.62 3.28 6.33 3.28 4.92 0 11.62-6.72 14.68-10.01 4.56-4.93 8.8-10.55 12.81-15.93 6.53-8.77 12.79-17.77 18.96-26.8a3.525 3.525 0 013.28-1.53l6.86.67c1.16.12 2.17.77 2.74 1.78.57 1 .62 2.2.13 3.25l-20.23 43.39c-.1.24-.19.48-.28.72 2.86-1.68 7.18-4.81 8.52-5.76 7.53-5.4 14.89-11.11 22.16-16.86.24-.42.57-.78.96-1.08 5.1-3.77 10.03-7.82 14.56-12.27 1.96-1.92 6.04-5.97 7.19-8.46l8.79-19.27a3.538 3.538 0 013.23-2.08h7.52a3.557 3.557 0 013.23 5.02l-24.73 54.45c-.84 1.82-1.68 3.73-2.25 5.63-.32 1.14-.63 2.49-.63 3.68 0 .4.06 1.68.35 2 .36.34 1.82.4 2.28.4 5.82 0 11.83-3.94 16.17-7.48 7.08-5.74 12.97-13.22 17.87-20.87 1.83-10.46 4.88-20.89 9.87-30.3 2.41-4.54 7.57-14.04 13.62-14.04 1.85 0 3.21 1.16 3.99 2.8.65 1.42.83 3.16.83 4.71 0 6.04-2.23 12.95-4.37 18.55-2.93 7.53-6.64 14.75-10.84 21.65.63.96 1.48 1.69 2.53 2.26 1.79.99 3.81 1.32 5.83 1.32 2.96 0 5.8-.88 8.44-2.18 2.04-1.01 4.02-2.3 5.89-3.63zm-306.89 9.01l36.57-78c3.5-7.42 7.53-15.65 10.2-23.4 1.24-3.64 2.42-7.86 2.42-11.73 0-4.7-1.6-8.8-4.93-12.13C66.02 1.57 61.94 0 57.29 0c-14.48 0-25.7 12.61-33.15 23.64C12.3 41.17 5.18 62.53.63 83.04a3.53 3.53 0 001.28 3.57l1.82 1.42 10.7-6.18c.85-.49 1.44-1.28 1.67-2.23 3.99-16.41 10.07-32.6 19.34-46.79 3.28-5.01 12.61-18.69 19.58-18.69 1.13 0 2.12.28 2.91 1.11.85.9 1.11 2.1 1.11 3.31 0 4.29-6.11 17.07-8 21.02l-1.29 2.66-.05.1-43.31 92.45c-1.74 3.61-3.57 7.44-4.95 11.22-.71 2.07-1.44 4.52-1.44 6.7 0 2.43.52 4.93 2.16 6.81 1.65 1.89 3.96 2.64 6.41 2.64 6.51 0 16.62-11.3 20.6-15.72 1.14-1.3 2.27-2.61 3.43-3.87l60.23-66.08-19.44 40.96c-2.59 5.37-5.52 11.34-7.42 17-.95 2.78-1.87 6.04-1.87 9 0 5.25 1.78 9.86 5.83 13.27 4.19 3.53 9.51 4.77 14.89 4.77 14.41 0 27.99-9.7 38.12-19.06 15.37-14.22 27.74-32.34 37.79-50.6 7.88-14.41 15.31-29.51 20.84-44.99 3.76-10.49 7.24-22.75 7.24-33.97 0-.87.02-1.77-.04-2.64-.02-.37 0-.12-.05-.47a3.543 3.543 0 00-1.85-2.68 3.561 3.561 0 00-3.27-.03l-6.79 3.44a3.532 3.532 0 00-1.94 2.93c-.7 10.27-4.05 21.3-7.56 30.92-5.03 13.78-11.53 27.09-18.76 39.84-9.32 16.54-20.48 32.95-34.03 46.34-6.59 6.49-18.5 17.07-28.42 17.07-1.56 0-4.07-.17-5.32-1.24-1.07-.91-1.27-2.66-1.27-3.96 0-4.13 3.43-11.74 5.15-15.44.39-.86.78-1.72 1.17-2.57l39.67-84.96c.45-.97.45-2.06-.01-3.03a3.537 3.537 0 00-2.36-1.92l-5.97-1.45c-1.26-.31-2.57.09-3.45 1.04l-88.63 96.05z" fill="#c89d46" fill-rule="evenodd"/></svg>