<svg width="305" height="120" fill="none" xmlns="http://www.w3.org/2000/svg"><g clip-path="url(#clip0_428_1772)"><path fill-rule="evenodd" clip-rule="evenodd" d="M257.278 87.514c.665.03 1.33.051 2.002.051 7.17 0 13.485-2.479 19.09-6.94 3.796-3.005 8.552-7.66 8.552-12.914 0-.607-.126-1.11-.584-1.495-.65-.533-1.492-.666-2.304-.666-4.859 0-10.428 3.922-14.024 6.867-5.17 4.24-9.379 9.347-12.732 15.097zm-12.119 2.101a36.867 36.867 0 011.906-4.847c2.422-5.106 5.886-9.62 9.881-13.594 4.32-4.3 9.157-8.192 14.519-11.122 4.202-2.287 9.002-4.1 13.847-4.1 3.19 0 6.461.688 8.958 2.812 2.4 2.08 3.419 4.921 3.419 8.066 0 8.991-5.133 15.896-11.993 21.18-8.279 6.349-17.931 9.042-28.307 9.042-.894 0-1.802.015-2.696-.03h-.029c-.037.193-.074.385-.096.578-.096.666-.14 1.347-.14 2.02 0 2.568.413 5.609 2.208 7.6 1.647 1.85 4.098 2.361 6.476 2.361 4.328 0 8.818-1.828 12.57-3.863 3.352-1.813 6.698-4.203 9.785-6.438 5.199-3.76 10.28-7.733 15.301-11.73a2.602 2.602 0 012.77-.31 2.612 2.612 0 011.477 2.36v4.84c0 .807-.355 1.547-.99 2.05-5.036 4.018-10.147 7.999-15.39 11.736-3.368 2.405-6.979 4.892-10.642 6.823-4.837 2.546-10.25 4.44-15.774 4.44-5.207 0-10.118-1.435-13.699-5.365-3.309-3.596-4.579-8.31-4.815-13.076a9.648 9.648 0 01-.473.208c-2.932 1.265-6.078 2.146-9.29 2.146a16.37 16.37 0 01-6.78-1.451 16.505 16.505 0 01-3.862-2.471c-4.054 5.342-8.788 10.36-14.297 14.193-4.786 3.33-10.302 5.809-16.225 5.809-3.124 0-6.344-.681-8.707-2.856-2.363-2.183-3.183-5.218-3.183-8.348 0-2.22.509-4.529 1.167-6.63a33.255 33.255 0 012.23-5.528c-.679.48-1.374.94-2.075 1.376l-.436.333c-5.273 4.093-28.085 22.149-34.739 22.149-1.433 0-2.636-.696-3.604-1.747-.982-1.11-1.447-2.501-1.447-3.973 0-1.014.354-2.191.657-3.131.133-.429.273-.858.421-1.28-1.381 1.517-2.828 2.945-4.335 4.211-3.685 3.1-8.057 5.431-12.975 5.431-4.919 0-8.597-2.072-11.418-5.868-3.138-4.188-4.216-9.346-4.216-14.497 0-4.24.805-8.354 2.459-12.262 1.757-4.151 4.357-7.895 7.348-11.263 5.509-6.03 12.06-10.796 19.43-14.311 6.875-3.264 14.26-5.35 21.911-5.35 2.673 0 5.376.229 7.961.902 2.311.577 4.49 1.532 6.536 2.753a2.627 2.627 0 011.27 2.39l-.244 4.67a2.622 2.622 0 01-1.403 2.19 2.59 2.59 0 01-2.599-.096c-1.633-1.014-3.375-1.88-5.214-2.442a22.03 22.03 0 00-6.477-.947c-6.218 0-12.259 1.805-17.842 4.432-5.76 2.716-11.063 6.364-15.235 11.219-2.326 2.694-4.298 5.69-5.672 8.991-1.218 2.864-1.957 5.86-1.957 8.984 0 2.582.414 5.468 1.95 7.614 1.181 1.614 2.673 2.428 4.674 2.428 3.634 0 8.582-4.973 10.842-7.408 3.367-3.648 6.498-7.807 9.46-11.788 4.822-6.49 9.445-13.15 14.002-19.832a2.6 2.6 0 012.422-1.133l5.066.496a2.61 2.61 0 012.024 1.317c.42.74.457 1.628.096 2.405l-14.94 32.109a15.36 15.36 0 00-.207.533c2.112-1.243 5.302-3.559 6.292-4.262 5.561-3.996 10.996-8.222 16.365-12.477.177-.31.421-.577.709-.799 3.766-2.79 7.407-5.787 10.753-9.08 1.447-1.42 4.46-4.418 5.309-6.26l6.492-14.26a2.611 2.611 0 012.385-1.54h5.554a2.61 2.61 0 012.2 1.207c.48.754.554 1.694.185 2.508l-18.263 40.294c-.62 1.347-1.241 2.76-1.662 4.166-.236.844-.465 1.843-.465 2.723 0 .296.044 1.243.259 1.48.265.252 1.344.296 1.683.296 4.298 0 8.737-2.915 11.942-5.535 5.228-4.248 9.578-9.783 13.197-15.444 1.351-7.74 3.604-15.459 7.289-22.422 1.78-3.36 5.59-10.39 10.058-10.39 1.366 0 2.371.858 2.947 2.072.48 1.05.613 2.338.613 3.485 0 4.47-1.647 9.583-3.228 13.728-2.163 5.572-4.903 10.915-8.005 16.02.465.711 1.093 1.251 1.869 1.673 1.321.733 2.813.977 4.305.977 2.186 0 4.283-.651 6.233-1.613 1.506-.748 2.969-1.702 4.35-2.686l.014.03zM18.522 96.283l27.007-57.721c2.584-5.491 5.56-11.581 7.532-17.316.916-2.694 1.787-5.817 1.787-8.68 0-3.479-1.181-6.513-3.64-8.977C48.756 1.162 45.743 0 42.308 0 31.616 0 23.33 9.332 17.829 17.494 9.083 30.466 3.824 46.273.464 61.45c-.221.992.14 2.013.946 2.642l1.344 1.051 7.901-4.573a2.586 2.586 0 001.234-1.65c2.946-12.144 7.436-24.125 14.282-34.626 2.423-3.707 9.313-13.83 14.46-13.83.835 0 1.566.207 2.15.821.627.666.819 1.554.819 2.45 0 3.174-4.512 12.632-5.908 15.555l-.953 1.968-.037.074L4.72 99.746c-1.285 2.671-2.636 5.506-3.656 8.303C.54 109.581 0 111.394 0 113.007c0 1.798.384 3.648 1.595 5.039C2.814 119.445 4.52 120 6.33 120c4.808 0 12.274-8.362 15.213-11.633.842-.962 1.676-1.931 2.533-2.864l44.48-48.9-14.357 30.311c-1.912 3.974-4.076 8.392-5.48 12.58-.7 2.058-1.38 4.47-1.38 6.66 0 3.885 1.314 7.297 4.305 9.82 3.094 2.613 7.023 3.53 10.996 3.53 10.642 0 20.671-7.178 28.152-14.104 11.351-10.523 20.486-23.932 27.908-37.445 5.819-10.663 11.306-21.838 15.39-33.293 2.777-7.763 5.347-16.835 5.347-25.138 0-.644.015-1.31-.03-1.954-.014-.274 0-.089-.037-.348a2.618 2.618 0 00-1.366-1.983 2.626 2.626 0 00-2.415-.022l-5.014 2.546a2.614 2.614 0 00-1.433 2.168c-.517 7.6-2.991 15.762-5.583 22.881-3.714 10.197-8.515 20.047-13.854 29.482-6.883 12.24-15.124 24.383-25.131 34.292-4.867 4.803-13.662 12.632-20.988 12.632-1.152 0-3.006-.126-3.93-.918-.79-.673-.937-1.968-.937-2.93 0-3.056 2.533-8.688 3.803-11.426.288-.636.576-1.273.864-1.902l29.297-62.87a2.62 2.62 0 00-.008-2.243 2.613 2.613 0 00-1.743-1.42l-4.409-1.074a2.608 2.608 0 00-2.547.77L18.522 96.283z" fill="#1B1B1B"/></g><defs><clipPath id="clip0_428_1772"><path fill="#fff" d="M0 0h305v120H0z"/></clipPath></defs></svg>