<svg data-name="Layer 1" xmlns="http://www.w3.org/2000/svg" viewBox="0 0 413 85.72"><path d="M94.5 48.15V10.08H8.61L0 .14h98l8.26 8.26v41.29L98 57.95H41.17V24.08h11.76v24.08H94.5zm83.47 9.8h-16.76c-8.26-8.26-34.29-24.08-34.29-24.08v24.08h-11.76V0h56.97l8.26 8.26v17.36l-8.26 8.26h-26.88l32.73 24.08zm-9.35-48.01h-41.71v14.14h41.71V9.94zm78.19 23.93h-45.07v14.14h44.71l8.76 9.94h-56.97c-8.26-8.26-.14-.33-8.26-8.26V8.26L198.24 0h48.71c8.27 8.52.01 0 8.27 8.26v17.22l-8.4 8.4zm-45.07-9.8h41.71V9.93h-41.71v14.14zM318.01 9.94H276.3v38.07h20.86l9.24 9.94h-33.6l-8.26-8.26V8.26c8.25-8.26.29-.04 8.25-8.26h48.71l8.26 8.26v49.69H318V9.94zM404.74 0h-21.55l-7.15 4.22L368.89 0h-21.56l-8.26 8.26v49.69h11.76V9.94h14.55l21.29 31.74V9.94h14.56v48.01h11.75V8.26L404.72 0zM195.67 82.62c1.05.8 1.93 1.46 2.8 2.13.21.16.51.31.43.65-.11.48-.51.2-.78.26-.46.1-.81-.15-1.16-.42-.68-.54-1.44-.98-2.04-1.6-1.08-1.11-2.37-1.18-3.76-1.12-.53.02-.66.21-.63.71.03.52-.01 1.05.01 1.57.02.54-.01.9-.72.89-.63-.01-.78-.23-.77-.84.03-2.9.03-5.8 0-8.7 0-.63.18-.84.79-.83 1.98.03 3.97-.04 5.95.03 2 .07 2.77.97 2.78 3.04v.97c0 2.28-.55 2.93-2.9 3.27zm-2.59-1.14h.82c3.18 0 3.19-.04 3.16-3.38-.01-1.17-.55-1.59-1.56-1.61-.89-.02-1.79 0-2.68 0q-2.29 0-2.29 2.37 0 2.62 2.55 2.62zm136.25-1.05c0-1.41.03-2.82-.01-4.23-.02-.7.22-.9.87-.89 2.6.03 5.21.01 7.81.01.43 0 .86-.07.85.64-.01.81-.57.51-.91.51-2.1.03-4.2.03-6.3 0-.59 0-.78.14-.8.79-.05 2.52-.08 2.52 2.29 2.52h3.62c.34 0 .69-.09.71.5.03.67-.38.56-.75.56-1.71 0-3.42.02-5.13-.01-.54 0-.71.13-.74.73-.12 2.92-.14 2.92 2.7 2.92h4.55c.41 0 .76-.03.76.6s-.35.6-.75.6c-2.68 0-5.37-.02-8.05 0-.57 0-.74-.2-.73-.77.03-1.49 0-2.98 0-4.47zm-214.32-.02c0-1.45.02-2.9 0-4.35-.01-.58.18-.76.74-.75 2.64.03 5.28.01 7.93 0 .41 0 .75 0 .76.61.02.67-.39.56-.76.56-2.14 0-4.27.03-6.41-.01-.67-.01-.83.2-.83.87-.02 2.44-.04 2.44 2.25 2.44 1.13 0 2.25-.02 3.38.01.38.01 1-.32.98.56-.02.82-.6.46-.93.47-1.63.04-3.26.04-4.89 0-.6-.02-.77.16-.79.8-.06 2.85-.09 2.85 2.65 2.85h4.55c.45 0 .84-.04.81.66-.03.67-.45.53-.81.53-2.6 0-5.21-.02-7.81.02-.72.01-.82-.29-.81-.92.03-1.45.01-2.9.01-4.35zm292.1 5.25c-.82 0-1.64.05-2.45-.02-.43-.04-1.2.44-1.17-.61.02-.94.72-.53 1.12-.54 1.67-.05 3.34-.01 5.01-.02 1.3 0 1.83-.49 1.83-1.62 0-1.14-.49-1.56-1.84-1.59-1.32-.03-2.64.11-3.95-.18-1.37-.3-2.14-1.19-2.18-2.57-.04-1.51.7-2.7 2.04-2.97 2.3-.48 4.65-.13 6.97-.21.43-.02.48.28.5.64.03.47-.22.52-.57.52h-5.13c-.47 0-.93.04-1.36.24-.75.35-.98 1.02-.96 1.77.02.76.39 1.25 1.15 1.45 1.35.34 2.71.09 4.06.16 2.07.1 3.11 1.46 2.65 3.55-.27 1.23-1.13 1.9-2.7 1.99-1.01.05-2.02.01-3.03.01zm-362.48 0c-1.19 0-2.16-.02-3.14 0-.43.01-.62-.1-.62-.6 0-.49.18-.61.62-.6 1.83.02 3.66.02 5.48 0 1.29 0 1.86-.52 1.85-1.62 0-1.09-.56-1.55-1.87-1.58-1.32-.03-2.64.12-3.95-.19-1.31-.3-2.02-1.02-2.11-2.2-.12-1.74.42-2.9 1.76-3.26 2.37-.63 4.8-.18 7.19-.28.49-.02.36.41.38.71.05.53-.32.44-.62.44h-5.25c-.69 0-1.33.17-1.75.77-.85 1.21-.21 2.64 1.32 2.8 1.15.12 2.33.03 3.5.05 2 .04 2.91 1.05 2.8 3.1-.06 1.19-.66 1.91-1.76 2.24-1.34.4-2.71.1-3.84.21zm218.62-5.19c0-1.44.02-2.89-.01-4.33-.01-.6.13-.83.77-.83.65 0 .65.34.65.83-.01 2.93-.02 5.86 0 8.79 0 .56-.14.76-.71.76-.56 0-.73-.17-.72-.75.03-1.48.01-2.97.01-4.45z" fill="#c89d46"/></svg>